<svg class="main-svg" xmlns="http://www.w3.org/2000/svg" xmlns:xlink="http://www.w3.org/1999/xlink" width="1264.99" height="755.977" style="" viewBox="0 0 1264.99 755.977"><rect x="0" y="0" width="1264.99" height="755.977" style="fill: rgb(255, 255, 255); fill-opacity: 1;"/><defs id="defs-48488f"><g class="clips"><clipPath id="clip48488fxyplot" class="plotclip"><rect width="1145" height="636"/></clipPath><clipPath class="axesclip" id="clip48488fx"><rect x="60" y="0" width="1145" height="755.977"/></clipPath><clipPath class="axesclip" id="clip48488fy"><rect x="0" y="60" width="1264.99" height="636"/></clipPath><clipPath class="axesclip" id="clip48488fxy"><rect x="60" y="60" width="1145" height="636"/></clipPath></g><g class="gradients"/></defs><g class="bglayer"/><g class="layer-below"><g class="imagelayer"/><g class="shapelayer"/></g><g class="cartesianlayer"><g class="subplot xy"><g class="layer-subplot"><g class="shapelayer"/><g class="imagelayer"/></g><g class="gridlayer"><g class="x"><path class="xgrid crisp" transform="translate(251.47,0)" d="M0,60v636" style="stroke: rgb(238, 238, 238); stroke-opacity: 1; stroke-width: 1px;"/><path class="xgrid crisp" transform="translate(442.94,0)" d="M0,60v636" style="stroke: rgb(238, 238, 238); stroke-opacity: 1; stroke-width: 1px;"/><path class="xgrid crisp" transform="translate(634.41,0)" d="M0,60v636" style="stroke: rgb(238, 238, 238); stroke-opacity: 1; stroke-width: 1px;"/><path class="xgrid crisp" transform="translate(825.89,0)" d="M0,60v636" style="stroke: rgb(238, 238, 238); stroke-opacity: 1; stroke-width: 1px;"/><path class="xgrid crisp" transform="translate(1017.36,0)" d="M0,60v636" style="stroke: rgb(238, 238, 238); stroke-opacity: 1; stroke-width: 1px;"/></g><g class="y"><path class="ygrid crisp" transform="translate(0,590.9)" d="M60,0h1145" style="stroke: rgb(238, 238, 238); stroke-opacity: 1; stroke-width: 1px;"/><path class="ygrid crisp" transform="translate(0,501.09)" d="M60,0h1145" style="stroke: rgb(238, 238, 238); stroke-opacity: 1; stroke-width: 1px;"/><path class="ygrid crisp" transform="translate(0,411.28)" d="M60,0h1145" style="stroke: rgb(238, 238, 238); stroke-opacity: 1; stroke-width: 1px;"/><path class="ygrid crisp" transform="translate(0,321.47)" d="M60,0h1145" style="stroke: rgb(238, 238, 238); stroke-opacity: 1; stroke-width: 1px;"/><path class="ygrid crisp" transform="translate(0,231.67)" d="M60,0h1145" style="stroke: rgb(238, 238, 238); stroke-opacity: 1; stroke-width: 1px;"/><path class="ygrid crisp" transform="translate(0,141.86)" d="M60,0h1145" style="stroke: rgb(238, 238, 238); stroke-opacity: 1; stroke-width: 1px;"/></g></g><g class="zerolinelayer"><path class="xzl zl crisp" transform="translate(60,0)" d="M0,60v636" style="stroke: rgb(68, 68, 68); stroke-opacity: 1; stroke-width: 1px;"/><path class="yzl zl crisp" transform="translate(0,680.7)" d="M60,0h1145" style="stroke: rgb(68, 68, 68); stroke-opacity: 1; stroke-width: 1px;"/></g><path class="xlines-below"/><path class="ylines-below"/><g class="overlines-below"/><g class="xaxislayer-below"/><g class="yaxislayer-below"/><g class="overaxes-below"/><g class="plot" transform="translate(60,60)" clip-path="url('#clip48488fxyplot')"><g class="scatterlayer mlayer"><g class="trace scatter tracef47e78" style="stroke-miterlimit: 2; opacity: 1;"><g class="fills"/><g class="errorbars"/><g class="lines"><path class="js-line" d="M0,550.62L3.83,593.56L7.66,596.9L11.49,592.13L15.32,599.33L19.15,601.34L22.98,548.58L26.81,590.34L30.64,597.84L34.46,595.52L38.29,499.15L42.12,589.71L45.95,592.25L49.78,584.05L53.61,598.86L57.44,591.48L61.27,588.98L65.1,594.22L68.93,597.92L72.76,598.96L76.59,581.13L80.42,588.02L84.25,592.56L88.08,598.18L91.91,598.03L95.74,594.49L99.57,589.09L103.39,587.35L107.22,588.85L111.05,601.61L114.88,602.17L118.71,597.86L122.54,596.88L126.37,599.7L130.2,554.1L134.03,440.38L137.86,594.54L141.69,599.79L145.52,602.25L149.35,595.06L153.18,575.17L157.01,600.96L160.84,599.02L164.67,603.25L168.49,600.95L172.32,604.2L176.15,594.35L179.98,602.35L183.81,600.64L187.64,472.32L191.47,604.16L195.3,601.96L199.13,598.54L202.96,600.72L206.79,594.93L210.62,603.6L214.45,540.71L218.28,601.94L222.11,599.17L225.94,599.08L229.77,600.3L233.6,539.54L237.42,601.44L241.25,598.48L245.08,602.07L248.91,600.98L252.74,598.66L256.57,603.96L260.4,600.94L264.23,509.41L268.06,596.2L271.89,598.17L275.72,601.12L279.55,588.65L283.38,599.68L291.04,597.62L294.87,598.41L298.7,597.25L302.53,574.5L306.35,602.54L310.18,601L314.01,603.34L317.84,602.02L321.67,603.02L325.5,593.51L329.33,599.44L333.16,601.44L336.99,601.3L340.82,603.56L344.65,599.54L348.48,575.05L352.31,597.05L356.14,602.67L359.97,600.57L363.8,602.24L367.63,598.48L371.45,597.76L375.28,598.41L379.11,585.72L382.94,600.19L386.77,589.94L390.6,601.31L394.43,600.52L398.26,595.03L402.09,587.22L405.92,600.85L409.75,602.23L417.41,599.01L421.24,587.57L425.07,600.07L428.9,578.27L432.73,604.07L436.56,602.55L440.38,603.04L444.21,586.4L448.04,598.47L451.87,594.31L455.7,581.66L459.53,597.12L463.36,600.23L467.19,596.29L471.02,598.25L474.85,599.23L478.68,593.36L482.51,603.3L490.17,596.72L494,157.44L497.83,602.09L501.66,597.47L505.48,588.05L509.31,592.39L513.14,600.79L516.97,593.13L520.8,593.03L524.63,31.8L528.46,573.35L532.29,603.1L536.12,598.44L539.95,601.66L543.78,572.91L547.61,601.61L551.44,597.98L555.27,596.9L559.1,603.76L562.93,600.77L566.76,592.42L570.59,599.72L578.24,600.83L582.07,598.05L585.9,599.15L589.73,602.1L593.56,600.76L597.39,602.61L601.22,602.63L605.05,598.89L608.88,589.25L612.71,585.33L616.54,591.62L620.37,600.74L628.03,600.34L631.86,572.41L635.69,602.02L639.52,537.77L643.34,601.65L647.17,597.34L651,601.92L654.83,601.61L658.66,600.87L662.49,596.95L666.32,599.41L670.15,596.72L673.98,593.33L677.81,585.72L681.64,586.02L685.47,592.08L689.3,601.87L693.13,601.22L696.96,601.15L700.79,592.49L704.62,593.98L708.44,566.58L712.27,591.89L716.1,597.47L719.93,601.75L723.76,601.17L727.59,600.04L731.42,591.69L735.25,587.27L739.08,586.98L742.91,588.31L746.74,596.44L750.57,584.82L754.4,595.36L758.23,602.34L762.06,598.07L769.72,601.75L773.55,596.6L777.37,602.14L781.2,600.52L785.03,362.96L788.86,598.88L792.69,590.08L796.52,570.77L800.35,597.71L804.18,600.14L808.01,584.96L811.84,595.24L815.67,601.82L819.5,596.22L823.33,596.03L827.16,599.19L834.82,581.5L838.65,601.6L842.47,590.37L846.3,590.45L850.13,596.87L853.96,569.95L857.79,597.87L861.62,597.59L865.45,589.98L869.28,601.76L873.11,600.59L876.94,601.05L880.77,599.79L884.6,600.12L888.43,601.21L892.26,599.42L896.09,552L899.92,597.98L903.75,593.26L907.58,591.57L911.4,600.37L915.23,595.48L919.06,599.68L922.89,602.27L926.72,597.08L930.55,578.2L934.38,597.77L938.21,573.99L945.87,598.49L949.7,598.52L957.36,602.07L961.19,598.98L965.02,601.87L968.85,596.69L972.68,594.14L976.51,603.96L980.33,598.95L984.16,601.12L987.99,602.3L991.82,598.78L995.65,594.93L999.48,577.89L1003.31,599.17L1007.14,575.29L1010.97,598.3L1014.8,578.85L1018.63,599.17L1022.46,598.13L1026.29,583.5L1030.12,596.61L1033.95,510.53L1037.78,594.64L1041.61,590.73L1045.43,592.51L1049.26,599.91L1053.09,591.95L1056.92,598.87L1060.75,596.45L1064.58,588.5L1068.41,598.06L1072.24,599.33L1076.07,591.6L1079.9,602.58L1083.73,599.27L1087.56,553.59L1091.39,600.44L1095.22,600.92L1099.05,594.93L1102.88,600.21L1106.71,600.23L1110.54,577.05L1114.36,603.73L1118.19,594.69L1122.02,598.41L1125.85,592.1L1129.68,601.55L1133.51,602.26L1137.34,599.19L1141.17,598.46L1145,572.62" style="vector-effect: non-scaling-stroke; fill: none; stroke: rgb(31, 119, 180); stroke-opacity: 1; stroke-width: 2px; opacity: 1;"/></g><g class="points"/><g class="text"/></g><g class="trace scatter trace752317" style="stroke-miterlimit: 2; opacity: 1;"><g class="fills"/><g class="errorbars"/><g class="lines"><path class="js-line" d="M0,577.54L7.66,577.54L11.49,549.99L19.15,549.99L22.98,568.49L30.64,568.49L34.46,550.69L42.12,550.69L45.95,512.83L53.61,512.83L57.44,572.58L65.1,572.58L68.93,571.59L88.08,571.8L91.91,548.57L99.57,548.57L103.39,560.58L111.05,560.58L114.88,572.35L122.54,572.35L126.37,573.56L134.03,573.56L137.86,453.09L145.52,453.09L149.35,499.01L157.01,499.01L160.84,382.05L168.49,382.05L172.32,547.7L179.98,547.7L183.81,561.45L191.47,561.45L195.3,556.75L202.96,556.75L206.79,555.8L214.45,555.8L218.28,565.95L225.94,565.95L229.77,467.26L237.42,467.26L241.25,577.75L248.91,577.75L252.74,556.86L260.4,556.86L264.23,574.96L271.89,574.96L275.72,555.4L283.38,555.4L287.21,543.68L294.87,543.68L298.7,545.53L306.35,545.53L310.18,578.58L317.84,578.58L321.67,563.02L329.33,563.02L333.16,560.64L340.82,560.64L344.65,577.65L352.31,577.65L356.14,579.86L363.8,579.86L367.63,572.6L375.28,572.6L379.11,524.14L386.77,524.14L390.6,564.51L398.26,564.51L402.09,571.19L409.75,571.19L413.58,572.53L421.24,572.53L425.07,565.63L444.21,564.96L448.04,566.42L455.7,566.42L459.53,554.48L467.19,554.48L471.02,512.57L478.68,512.57L482.51,579.86L490.17,579.86L494,560.24L501.66,560.24L505.48,576.83L513.14,576.83L516.97,562.24L524.63,562.24L528.46,544.9L536.12,544.9L539.95,572.54L547.61,572.54L551.44,579.49L559.1,579.49L562.93,581.29L570.59,581.29L574.41,553.81L582.07,553.81L585.9,566.6L605.05,566.71L608.88,574.17L616.54,574.17L620.37,421.15L628.03,421.15L631.86,573.32L639.52,573.32L643.34,570.11L651,570.11L654.83,523.57L662.49,523.57L666.32,568.47L673.98,568.47L677.81,575.33L685.47,575.33L689.3,562.79L696.96,562.79L700.79,572.26L708.44,572.26L712.27,573.96L719.93,573.96L723.76,576.33L731.42,576.33L735.25,553.85L742.91,553.85L746.74,571.37L754.4,571.37L758.23,565.88L765.89,565.88L769.72,569.76L777.37,569.76L781.2,577.27L788.86,577.27L792.69,561.94L800.35,561.94L804.18,533.66L811.84,533.66L815.67,573.76L823.33,573.76L827.16,515.08L834.82,515.08L838.65,571.61L857.79,571.6L861.62,506.13L869.28,506.13L873.11,572.81L880.77,572.81L884.6,574.75L915.23,574.65L919.06,571.59L926.72,571.59L930.55,580.51L938.21,580.51L942.04,576.29L949.7,576.29L953.53,575.48L961.19,575.48L965.02,577.86L972.68,577.86L976.51,496.77L984.16,496.77L987.99,577.55L995.65,577.55L999.48,575.65L1007.14,575.65L1010.97,578.74L1030.12,579.32L1033.95,577.84L1041.61,577.84L1045.43,579.28L1053.09,579.28L1056.92,577.23L1064.58,577.23L1068.41,581.23L1076.07,581.23L1079.9,577.26L1087.56,577.26L1091.39,570.59L1099.05,570.59L1102.88,560.36L1110.54,560.36L1114.36,551.13L1122.02,551.13L1125.85,579.52L1133.51,579.52L1137.34,563.07L1145,563.07" style="vector-effect: non-scaling-stroke; fill: none; stroke: rgb(255, 127, 14); stroke-opacity: 1; stroke-width: 2px; opacity: 1;"/></g><g class="points"/><g class="text"/></g></g></g><g class="overplot"/><path class="xlines-above crisp" d="M0,0" style="fill: none;"/><path class="ylines-above crisp" d="M0,0" style="fill: none;"/><g class="overlines-above"/><g class="xaxislayer-above"><g class="xtick"><text text-anchor="middle" x="0" y="709" transform="translate(60,0)" style="font-family: 'Open Sans', verdana, arial, sans-serif; font-size: 12px; fill: rgb(68, 68, 68); fill-opacity: 1; white-space: pre;">0</text></g><g class="xtick"><text text-anchor="middle" x="0" y="709" transform="translate(251.47,0)" style="font-family: 'Open Sans', verdana, arial, sans-serif; font-size: 12px; fill: rgb(68, 68, 68); fill-opacity: 1; white-space: pre;">50</text></g><g class="xtick"><text text-anchor="middle" x="0" y="709" transform="translate(442.94,0)" style="font-family: 'Open Sans', verdana, arial, sans-serif; font-size: 12px; fill: rgb(68, 68, 68); fill-opacity: 1; white-space: pre;">100</text></g><g class="xtick"><text text-anchor="middle" x="0" y="709" transform="translate(634.41,0)" style="font-family: 'Open Sans', verdana, arial, sans-serif; font-size: 12px; fill: rgb(68, 68, 68); fill-opacity: 1; white-space: pre;">150</text></g><g class="xtick"><text text-anchor="middle" x="0" y="709" transform="translate(825.89,0)" style="font-family: 'Open Sans', verdana, arial, sans-serif; font-size: 12px; fill: rgb(68, 68, 68); fill-opacity: 1; white-space: pre;">200</text></g><g class="xtick"><text text-anchor="middle" x="0" y="709" transform="translate(1017.36,0)" style="font-family: 'Open Sans', verdana, arial, sans-serif; font-size: 12px; fill: rgb(68, 68, 68); fill-opacity: 1; white-space: pre;">250</text></g></g><g class="yaxislayer-above"><g class="ytick"><text text-anchor="end" x="59" y="4.199999999999999" transform="translate(0,680.7)" style="font-family: 'Open Sans', verdana, arial, sans-serif; font-size: 12px; fill: rgb(68, 68, 68); fill-opacity: 1; white-space: pre;">0</text></g><g class="ytick"><text text-anchor="end" x="59" y="4.199999999999999" transform="translate(0,590.9)" style="font-family: 'Open Sans', verdana, arial, sans-serif; font-size: 12px; fill: rgb(68, 68, 68); fill-opacity: 1; white-space: pre;">100</text></g><g class="ytick"><text text-anchor="end" x="59" y="4.199999999999999" transform="translate(0,501.09)" style="font-family: 'Open Sans', verdana, arial, sans-serif; font-size: 12px; fill: rgb(68, 68, 68); fill-opacity: 1; white-space: pre;">200</text></g><g class="ytick"><text text-anchor="end" x="59" y="4.199999999999999" transform="translate(0,411.28)" style="font-family: 'Open Sans', verdana, arial, sans-serif; font-size: 12px; fill: rgb(68, 68, 68); fill-opacity: 1; white-space: pre;">300</text></g><g class="ytick"><text text-anchor="end" x="59" y="4.199999999999999" transform="translate(0,321.47)" style="font-family: 'Open Sans', verdana, arial, sans-serif; font-size: 12px; fill: rgb(68, 68, 68); fill-opacity: 1; white-space: pre;">400</text></g><g class="ytick"><text text-anchor="end" x="59" y="4.199999999999999" transform="translate(0,231.67)" style="font-family: 'Open Sans', verdana, arial, sans-serif; font-size: 12px; fill: rgb(68, 68, 68); fill-opacity: 1; white-space: pre;">500</text></g><g class="ytick"><text text-anchor="end" x="59" y="4.199999999999999" transform="translate(0,141.86)" style="font-family: 'Open Sans', verdana, arial, sans-serif; font-size: 12px; fill: rgb(68, 68, 68); fill-opacity: 1; white-space: pre;">600</text></g></g><g class="overaxes-above"/></g></g><g class="polarlayer"/><g class="ternarylayer"/><g class="geolayer"/><g class="funnelarealayer"/><g class="pielayer"/><g class="treemaplayer"/><g class="sunburstlayer"/><g class="glimages"/><defs id="topdefs-48488f"><g class="clips"/></defs><g class="layer-above"><g class="imagelayer"/><g class="shapelayer"/></g><g class="infolayer"><g class="g-gtitle"/><g class="g-xtitle"/><g class="g-ytitle"/></g></svg>