<svg class="main-svg" xmlns="http://www.w3.org/2000/svg" xmlns:xlink="http://www.w3.org/1999/xlink" width="2514.98" height="1310.98" style="" viewBox="0 0 2514.98 1310.98"><rect x="0" y="0" width="2514.98" height="1310.98" style="fill: rgb(255, 255, 255); fill-opacity: 1;"/><defs id="defs-860704"><g class="clips"><clipPath id="clip860704xyplot" class="plotclip"><rect width="2395" height="1191"/></clipPath><clipPath class="axesclip" id="clip860704x"><rect x="60" y="0" width="2395" height="1310.98"/></clipPath><clipPath class="axesclip" id="clip860704y"><rect x="0" y="60" width="2514.98" height="1191"/></clipPath><clipPath class="axesclip" id="clip860704xy"><rect x="60" y="60" width="2395" height="1191"/></clipPath></g><g class="gradients"/></defs><g class="bglayer"/><g class="layer-below"><g class="imagelayer"/><g class="shapelayer"/></g><g class="cartesianlayer"><g class="subplot xy"><g class="layer-subplot"><g class="shapelayer"/><g class="imagelayer"/></g><g class="gridlayer"><g class="x"><path class="xgrid crisp" transform="translate(460.5,0)" d="M0,60v1191" style="stroke: rgb(238, 238, 238); stroke-opacity: 1; stroke-width: 1px;"/><path class="xgrid crisp" transform="translate(861,0)" d="M0,60v1191" style="stroke: rgb(238, 238, 238); stroke-opacity: 1; stroke-width: 1px;"/><path class="xgrid crisp" transform="translate(1261.51,0)" d="M0,60v1191" style="stroke: rgb(238, 238, 238); stroke-opacity: 1; stroke-width: 1px;"/><path class="xgrid crisp" transform="translate(1662.01,0)" d="M0,60v1191" style="stroke: rgb(238, 238, 238); stroke-opacity: 1; stroke-width: 1px;"/><path class="xgrid crisp" transform="translate(2062.51,0)" d="M0,60v1191" style="stroke: rgb(238, 238, 238); stroke-opacity: 1; stroke-width: 1px;"/></g><g class="y"><path class="ygrid crisp" transform="translate(0,1013.92)" d="M60,0h2395" style="stroke: rgb(238, 238, 238); stroke-opacity: 1; stroke-width: 1px;"/><path class="ygrid crisp" transform="translate(0,826.8)" d="M60,0h2395" style="stroke: rgb(238, 238, 238); stroke-opacity: 1; stroke-width: 1px;"/><path class="ygrid crisp" transform="translate(0,639.68)" d="M60,0h2395" style="stroke: rgb(238, 238, 238); stroke-opacity: 1; stroke-width: 1px;"/><path class="ygrid crisp" transform="translate(0,452.56)" d="M60,0h2395" style="stroke: rgb(238, 238, 238); stroke-opacity: 1; stroke-width: 1px;"/><path class="ygrid crisp" transform="translate(0,265.44)" d="M60,0h2395" style="stroke: rgb(238, 238, 238); stroke-opacity: 1; stroke-width: 1px;"/><path class="ygrid crisp" transform="translate(0,78.32)" d="M60,0h2395" style="stroke: rgb(238, 238, 238); stroke-opacity: 1; stroke-width: 1px;"/></g></g><g class="zerolinelayer"><path class="xzl zl crisp" transform="translate(60,0)" d="M0,60v1191" style="stroke: rgb(68, 68, 68); stroke-opacity: 1; stroke-width: 1px;"/><path class="yzl zl crisp" transform="translate(0,1201.04)" d="M60,0h2395" style="stroke: rgb(68, 68, 68); stroke-opacity: 1; stroke-width: 1px;"/></g><path class="xlines-below"/><path class="ylines-below"/><g class="overlines-below"/><g class="xaxislayer-below"/><g class="yaxislayer-below"/><g class="overaxes-below"/><g class="plot" transform="translate(60,60)" clip-path="url('#clip860704xyplot')"><g class="scatterlayer mlayer"><g class="trace scatter tracea6f7cc" style="stroke-miterlimit: 2; opacity: 1;"><g class="fills"/><g class="errorbars"/><g class="lines"><path class="js-line" d="M0,1120.83L8.01,1123.04L16.02,1119.17L24.03,1119.37L32.04,1090.78L40.05,1123.25L48.06,1125.95L56.07,1130.9L64.08,1125.12L72.09,1125.42L80.1,1123.51L88.11,1125.41L96.12,1128.28L112.14,1129.89L120.15,1123.28L128.16,1127.19L136.17,1124.43L144.18,1124.62L152.19,1122.4L160.2,1125.03L168.21,1129.94L176.22,1124L184.23,1125.36L192.24,1120.28L200.25,1123.23L208.26,1101.09L216.27,1128.43L224.28,1113.99L232.29,1129.59L240.3,1126.09L248.31,1127.99L256.32,1131.04L264.33,1121.73L272.34,1120.62L280.35,1128.47L288.36,1116.79L296.37,1124.71L304.38,1120.62L312.39,1122.58L320.4,1121.38L328.41,990.31L336.42,1124.11L344.43,1126.17L352.44,1129.52L360.45,1125.13L368.46,1128.25L376.47,1124.44L384.48,1125.9L392.49,1122.83L400.5,1128.72L408.51,1125.29L416.52,1123.12L424.53,1119.7L432.54,1126.29L440.55,1124.16L448.56,1124.1L456.57,1120.32L464.58,1127.95L472.59,1104.32L480.6,1128.53L488.61,1128.52L496.62,1127.03L504.63,1126.48L512.64,1127.22L520.65,1125.16L528.66,1124L536.67,1122.02L544.68,1121.09L552.69,1126.09L560.7,1108.64L568.71,1097.36L576.72,1109.34L584.73,1113.83L592.74,1123.46L600.75,1129.37L608.76,1130.63L616.77,1118.09L624.78,1122.87L632.79,1129.5L640.8,1126.5L648.81,1125.18L656.82,1117.2L664.83,1099.57L672.84,1129L680.85,1067.73L688.86,1128.01L696.87,1128.25L704.88,1116.96L712.89,1121.46L720.9,1120.19L728.91,1130.72L736.92,1121.17L744.93,1124.86L752.94,1091.51L760.95,1126.56L768.96,59.55L776.97,1122.33L784.98,1127.1L792.99,1102.25L801,1113.45L809.01,1116.73L817.02,1118.98L825.03,1123.57L833.04,1126.61L841.05,1127.31L849.06,1129.75L857.07,1125.03L865.08,1114.84L873.09,1123.78L881.1,1127.57L889.11,1125L897.12,1101.58L905.13,1117.77L913.14,1116.65L921.15,1123.88L929.16,1126.38L937.17,1115.35L945.18,1089.59L953.19,1114.16L961.2,1109.58L969.21,1126.37L977.22,1123.63L985.23,1128.88L993.24,1127.67L1001.25,1118L1009.26,1122.01L1017.27,994.46L1025.28,1116.9L1033.29,1128.05L1041.3,1121.2L1049.31,1124.96L1057.32,1122.34L1065.33,1112.4L1073.34,1108.72L1081.35,1129.9L1089.36,1129.07L1097.37,1125.93L1105.38,1106.61L1113.39,1128.11L1121.4,1106.54L1129.41,1119.63L1137.42,1130.4L1145.43,1126.37L1153.44,1121.36L1161.45,1127.71L1169.46,1130.08L1177.47,1127.67L1193.49,1125.54L1201.51,1115.78L1209.52,1128.92L1217.53,1126.43L1225.54,1125.93L1233.55,1120L1241.56,1120.29L1249.57,1017.11L1257.58,1125.71L1265.59,1067.62L1273.6,1129.22L1281.61,1118.45L1289.62,1129.34L1297.63,1125.39L1305.64,1125.78L1313.65,1119.77L1321.66,1129.02L1329.67,1128.28L1337.68,1091.19L1345.69,1122.99L1353.7,1127.75L1361.71,1127.59L1377.73,1131.45L1385.74,1105.92L1393.75,1110.73L1401.76,1127.46L1409.77,1128.69L1417.78,1131.15L1425.79,1130.54L1433.8,1123.23L1449.82,1127.3L1457.83,1121.33L1465.84,1125.85L1473.85,1129.45L1481.86,1126.83L1489.87,1118.48L1497.88,1100.14L1505.89,1121.36L1513.9,1124.43L1521.91,1126.18L1537.93,1128L1545.94,1124.93L1553.95,1127.65L1561.96,1128.38L1569.97,1129.39L1577.98,1126.19L1585.99,1123.74L1594,1131.05L1602.01,1126.89L1610.02,1112.66L1618.03,1115.52L1626.04,1127.32L1634.05,1129.38L1642.06,1129.74L1650.07,1091.02L1658.08,1129.11L1666.09,1126.58L1674.1,1125.89L1682.11,1116.09L1690.12,1126.92L1698.13,1128.46L1706.14,1122.19L1714.15,1105.58L1722.16,1125.78L1730.17,1128.84L1738.18,1121.6L1746.19,1128.55L1754.2,1127.41L1762.21,1125.17L1770.22,1123.86L1778.23,1129.05L1786.24,1127.67L1794.25,1125.5L1802.26,1128.39L1810.27,1125.24L1818.28,1111.32L1826.29,1111.52L1834.3,1125.3L1842.31,1129.38L1850.32,1127.06L1858.33,1123.7L1866.34,1122.11L1874.35,1126.98L1882.36,1122.16L1890.37,1114.59L1898.38,1123.26L1906.39,1123.75L1914.4,1127.55L1930.42,1125.79L1938.43,1128.38L1946.44,1129.4L1954.45,1128.37L1970.47,1124.33L1978.48,774.88L1986.49,1126.27L1994.5,1111.35L2002.51,1130.59L2010.52,1127.1L2018.53,1089.92L2026.54,1127.17L2034.55,1063.71L2042.56,1122.83L2050.57,1126.82L2058.58,1128.83L2066.59,1129.13L2074.6,1128.4L2082.61,1101.94L2090.62,1129.41L2098.63,1122.71L2106.64,1129.02L2114.65,1127.39L2122.66,1114L2130.67,1129.42L2138.68,1126.7L2146.69,1129.39L2154.7,1131.03L2162.71,1103.59L2170.72,1116.46L2178.73,1126.23L2186.74,1129.69L2194.75,1129.13L2202.76,1125.24L2210.77,1128.48L2218.78,1127.27L2226.79,1098.73L2234.8,1129.98L2242.81,1116.98L2250.82,1122.35L2258.83,1126.42L2266.84,1127.13L2274.85,1126.29L2282.86,1123.9L2290.87,1124.32L2298.88,1126.51L2306.89,1121.43L2314.9,1129.11L2322.91,1128.45L2330.92,1126.48L2338.93,1087.76L2346.94,1128L2354.95,1125.01L2362.96,1128.71L2370.97,1120.5L2378.98,1125.93L2386.99,1001.11L2395,1125.56" style="vector-effect: non-scaling-stroke; fill: none; stroke: rgb(31, 119, 180); stroke-opacity: 1; stroke-width: 2px; opacity: 1;"/></g><g class="points"/><g class="text"/></g><g class="trace scatter trace013726" style="stroke-miterlimit: 2; opacity: 1;"><g class="fills"/><g class="errorbars"/><g class="lines"><path class="js-line" d="M0,1098.02L16.02,1098.02L24.03,1015.29L40.05,1015.29L48.06,1116.53L64.08,1116.53L72.09,1112.81L88.11,1112.81L96.12,1107.2L112.14,1107.2L120.15,1116.41L136.17,1116.41L144.18,1114.63L160.2,1114.63L168.21,1120.25L184.23,1120.25L192.24,1108.31L208.26,1108.31L216.27,1114.03L232.29,1114.03L240.3,1110.07L256.32,1110.07L264.33,1088.93L280.35,1088.93L288.36,1108.71L304.38,1108.71L312.39,1099.38L328.41,1099.38L336.42,1102.95L352.44,1102.95L360.45,1100.52L376.47,1100.52L384.48,1096.89L400.5,1096.89L408.51,1114.57L424.53,1114.57L432.54,695.92L448.56,695.92L456.57,1114.56L472.59,1114.56L480.6,1106.79L496.62,1106.79L504.63,1103.83L520.65,1103.83L528.66,1113.33L544.68,1113.33L552.69,1101.26L568.71,1101.26L576.72,1112.73L592.74,1112.73L600.75,961.52L616.77,961.52L624.78,1101.55L640.8,1101.55L648.81,1090.69L664.83,1090.69L672.84,1112.56L688.86,1112.56L696.87,1103.86L736.92,1104.07L744.93,1107.9L760.95,1107.9L768.96,1104L784.98,1104L792.99,1114.81L833.04,1114.93L841.05,1098.09L857.07,1098.09L865.08,1095.05L881.1,1095.05L889.11,1102.85L905.13,1102.85L913.14,1103.81L929.16,1103.81L937.17,1097.94L953.19,1097.94L961.2,1110.06L977.22,1110.06L985.23,1074.4L1001.25,1074.4L1009.26,1089.82L1025.28,1089.82L1033.29,1058.57L1049.31,1058.57L1057.32,1101.58L1073.34,1101.58L1081.35,1106.67L1097.37,1106.67L1105.38,1093.74L1121.4,1093.74L1129.41,1115.08L1145.43,1115.08L1153.44,1096.53L1169.46,1096.53L1177.47,1113.1L1193.49,1113.1L1201.51,1114.19L1217.53,1114.19L1225.54,1101.29L1241.56,1101.29L1249.57,1103.36L1265.59,1103.36L1273.6,1107.9L1289.62,1107.9L1297.63,1109.7L1313.65,1109.7L1321.66,1102.06L1337.68,1102.06L1345.69,1105.08L1361.71,1105.08L1369.72,1109.57L1385.74,1109.57L1393.75,1106.81L1433.8,1107.18L1441.81,1089L1457.83,1089L1465.84,1113.61L1481.86,1113.61L1489.87,938.81L1505.89,938.81L1513.9,1104.42L1529.92,1104.42L1537.93,1086.54L1553.95,1086.54L1561.96,1108.62L1577.98,1108.62L1585.99,1105.37L1602.01,1105.37L1610.02,1109.49L1626.04,1109.49L1634.05,1096.76L1650.07,1096.76L1658.08,1051.6L1674.1,1051.6L1682.11,1113.56L1698.13,1113.56L1706.14,1115.59L1722.16,1115.59L1730.17,1113.93L1746.19,1113.93L1754.2,1102.32L1770.22,1102.32L1778.23,1113.49L1794.25,1113.49L1802.26,1107.73L1818.28,1107.73L1826.29,1088.84L1842.31,1088.84L1850.32,1100.25L1866.34,1100.25L1874.35,1114.35L1890.37,1114.35L1898.38,1071.83L1914.4,1071.83L1922.41,1110.13L1962.46,1110.54L1970.47,1067.76L1986.49,1067.76L1994.5,1110.3L2010.52,1110.3L2018.53,1115.42L2034.55,1115.42L2042.56,1086.83L2058.58,1086.83L2066.59,1106.36L2082.61,1106.36L2090.62,1103.49L2106.64,1103.49L2114.65,1110.28L2130.67,1110.28L2138.68,1116.79L2154.7,1116.79L2162.71,1091.95L2178.73,1091.95L2186.74,1038.25L2202.76,1038.25L2210.77,1111.71L2226.79,1111.71L2234.8,1109.22L2250.82,1109.22L2258.83,1102.4L2274.85,1102.4L2282.86,1100.14L2298.88,1100.14L2306.89,1114.27L2322.91,1114.27L2330.92,1105.61L2346.94,1105.61L2354.95,1094.28L2370.97,1094.28L2378.98,1104.6L2395,1104.6" style="vector-effect: non-scaling-stroke; fill: none; stroke: rgb(255, 127, 14); stroke-opacity: 1; stroke-width: 2px; opacity: 1;"/></g><g class="points"/><g class="text"/></g></g></g><g class="overplot"/><path class="xlines-above crisp" d="M0,0" style="fill: none;"/><path class="ylines-above crisp" d="M0,0" style="fill: none;"/><g class="overlines-above"/><g class="xaxislayer-above"><g class="xtick"><text text-anchor="middle" x="0" y="1264" transform="translate(60,0)" style="font-family: 'Open Sans', verdana, arial, sans-serif; font-size: 12px; fill: rgb(68, 68, 68); fill-opacity: 1; white-space: pre;">0</text></g><g class="xtick"><text text-anchor="middle" x="0" y="1264" transform="translate(460.5,0)" style="font-family: 'Open Sans', verdana, arial, sans-serif; font-size: 12px; fill: rgb(68, 68, 68); fill-opacity: 1; white-space: pre;">50</text></g><g class="xtick"><text text-anchor="middle" x="0" y="1264" transform="translate(861,0)" style="font-family: 'Open Sans', verdana, arial, sans-serif; font-size: 12px; fill: rgb(68, 68, 68); fill-opacity: 1; white-space: pre;">100</text></g><g class="xtick"><text text-anchor="middle" x="0" y="1264" transform="translate(1261.51,0)" style="font-family: 'Open Sans', verdana, arial, sans-serif; font-size: 12px; fill: rgb(68, 68, 68); fill-opacity: 1; white-space: pre;">150</text></g><g class="xtick"><text text-anchor="middle" x="0" y="1264" transform="translate(1662.01,0)" style="font-family: 'Open Sans', verdana, arial, sans-serif; font-size: 12px; fill: rgb(68, 68, 68); fill-opacity: 1; white-space: pre;">200</text></g><g class="xtick"><text text-anchor="middle" x="0" y="1264" transform="translate(2062.51,0)" style="font-family: 'Open Sans', verdana, arial, sans-serif; font-size: 12px; fill: rgb(68, 68, 68); fill-opacity: 1; white-space: pre;">250</text></g></g><g class="yaxislayer-above"><g class="ytick"><text text-anchor="end" x="59" y="4.199999999999999" transform="translate(0,1201.04)" style="font-family: 'Open Sans', verdana, arial, sans-serif; font-size: 12px; fill: rgb(68, 68, 68); fill-opacity: 1; white-space: pre;">0</text></g><g class="ytick"><text text-anchor="end" x="59" y="4.199999999999999" transform="translate(0,1013.92)" style="font-family: 'Open Sans', verdana, arial, sans-serif; font-size: 12px; fill: rgb(68, 68, 68); fill-opacity: 1; white-space: pre;">200</text></g><g class="ytick"><text text-anchor="end" x="59" y="4.199999999999999" transform="translate(0,826.8)" style="font-family: 'Open Sans', verdana, arial, sans-serif; font-size: 12px; fill: rgb(68, 68, 68); fill-opacity: 1; white-space: pre;">400</text></g><g class="ytick"><text text-anchor="end" x="59" y="4.199999999999999" transform="translate(0,639.68)" style="font-family: 'Open Sans', verdana, arial, sans-serif; font-size: 12px; fill: rgb(68, 68, 68); fill-opacity: 1; white-space: pre;">600</text></g><g class="ytick"><text text-anchor="end" x="59" y="4.199999999999999" transform="translate(0,452.56)" style="font-family: 'Open Sans', verdana, arial, sans-serif; font-size: 12px; fill: rgb(68, 68, 68); fill-opacity: 1; white-space: pre;">800</text></g><g class="ytick"><text text-anchor="end" x="59" y="4.199999999999999" transform="translate(0,265.44)" style="font-family: 'Open Sans', verdana, arial, sans-serif; font-size: 12px; fill: rgb(68, 68, 68); fill-opacity: 1; white-space: pre;">1000</text></g><g class="ytick"><text text-anchor="end" x="59" y="4.199999999999999" transform="translate(0,78.32)" style="font-family: 'Open Sans', verdana, arial, sans-serif; font-size: 12px; fill: rgb(68, 68, 68); fill-opacity: 1; white-space: pre;">1200</text></g></g><g class="overaxes-above"/></g></g><g class="polarlayer"/><g class="ternarylayer"/><g class="geolayer"/><g class="funnelarealayer"/><g class="pielayer"/><g class="treemaplayer"/><g class="sunburstlayer"/><g class="glimages"/><defs id="topdefs-860704"><g class="clips"/></defs><g class="layer-above"><g class="imagelayer"/><g class="shapelayer"/></g><g class="infolayer"><g class="g-gtitle"/><g class="g-xtitle"/><g class="g-ytitle"/></g></svg>