<svg class="main-svg" xmlns="http://www.w3.org/2000/svg" xmlns:xlink="http://www.w3.org/1999/xlink" width="2514.98" height="1310.98" style="" viewBox="0 0 2514.98 1310.98"><rect x="0" y="0" width="2514.98" height="1310.98" style="fill: rgb(255, 255, 255); fill-opacity: 1;"/><defs id="defs-a08cfd"><g class="clips"><clipPath id="clipa08cfdxyplot" class="plotclip"><rect width="2395" height="1191"/></clipPath><clipPath class="axesclip" id="clipa08cfdx"><rect x="60" y="0" width="2395" height="1310.98"/></clipPath><clipPath class="axesclip" id="clipa08cfdy"><rect x="0" y="60" width="2514.98" height="1191"/></clipPath><clipPath class="axesclip" id="clipa08cfdxy"><rect x="60" y="60" width="2395" height="1191"/></clipPath></g><g class="gradients"/></defs><g class="bglayer"/><g class="layer-below"><g class="imagelayer"/><g class="shapelayer"/></g><g class="cartesianlayer"><g class="subplot xy"><g class="layer-subplot"><g class="shapelayer"/><g class="imagelayer"/></g><g class="gridlayer"><g class="x"><path class="xgrid crisp" transform="translate(460.5,0)" d="M0,60v1191" style="stroke: rgb(238, 238, 238); stroke-opacity: 1; stroke-width: 1px;"/><path class="xgrid crisp" transform="translate(861,0)" d="M0,60v1191" style="stroke: rgb(238, 238, 238); stroke-opacity: 1; stroke-width: 1px;"/><path class="xgrid crisp" transform="translate(1261.51,0)" d="M0,60v1191" style="stroke: rgb(238, 238, 238); stroke-opacity: 1; stroke-width: 1px;"/><path class="xgrid crisp" transform="translate(1662.01,0)" d="M0,60v1191" style="stroke: rgb(238, 238, 238); stroke-opacity: 1; stroke-width: 1px;"/><path class="xgrid crisp" transform="translate(2062.51,0)" d="M0,60v1191" style="stroke: rgb(238, 238, 238); stroke-opacity: 1; stroke-width: 1px;"/></g><g class="y"><path class="ygrid crisp" transform="translate(0,1044.3899999999999)" d="M60,0h2395" style="stroke: rgb(238, 238, 238); stroke-opacity: 1; stroke-width: 1px;"/><path class="ygrid crisp" transform="translate(0,879.47)" d="M60,0h2395" style="stroke: rgb(238, 238, 238); stroke-opacity: 1; stroke-width: 1px;"/><path class="ygrid crisp" transform="translate(0,714.55)" d="M60,0h2395" style="stroke: rgb(238, 238, 238); stroke-opacity: 1; stroke-width: 1px;"/><path class="ygrid crisp" transform="translate(0,549.63)" d="M60,0h2395" style="stroke: rgb(238, 238, 238); stroke-opacity: 1; stroke-width: 1px;"/><path class="ygrid crisp" transform="translate(0,384.71)" d="M60,0h2395" style="stroke: rgb(238, 238, 238); stroke-opacity: 1; stroke-width: 1px;"/><path class="ygrid crisp" transform="translate(0,219.79)" d="M60,0h2395" style="stroke: rgb(238, 238, 238); stroke-opacity: 1; stroke-width: 1px;"/></g></g><g class="zerolinelayer"><path class="xzl zl crisp" transform="translate(60,0)" d="M0,60v1191" style="stroke: rgb(68, 68, 68); stroke-opacity: 1; stroke-width: 1px;"/><path class="yzl zl crisp" transform="translate(0,1209.31)" d="M60,0h2395" style="stroke: rgb(68, 68, 68); stroke-opacity: 1; stroke-width: 1px;"/></g><path class="xlines-below"/><path class="ylines-below"/><g class="overlines-below"/><g class="xaxislayer-below"/><g class="yaxislayer-below"/><g class="overaxes-below"/><g class="plot" transform="translate(60,60)" clip-path="url('#clipa08cfdxyplot')"><g class="scatterlayer mlayer"><g class="trace scatter trace888ceb" style="stroke-miterlimit: 2; opacity: 1;"><g class="fills"/><g class="errorbars"/><g class="lines"><path class="js-line" d="M0,1096.45L8.01,1075.06L16.02,1115.33L24.03,994.24L32.04,1126.39L40.05,1093.51L48.06,1103.91L56.07,1113.55L64.08,1126.85L72.09,1127.05L80.1,934.12L88.11,1092.23L96.12,937.71L104.13,1077.5L112.14,1125.46L120.15,1118.62L128.16,1126.36L136.17,1122.21L144.18,1122.15L152.19,1118.94L160.2,1078.58L168.21,1095.23L176.22,1102.27L184.23,1113.05L192.24,1095.24L200.25,1125.9L208.26,1029.93L216.27,1122.94L224.28,1094.65L232.29,1093.99L240.3,1125.45L248.31,1119.32L256.32,1124.38L264.33,1125.06L272.34,1122.01L280.35,1126.32L288.36,1125.87L296.37,1126.79L304.38,1102.22L312.39,1128.26L320.4,1122.56L328.41,1123.76L336.42,1119.73L344.43,1124.95L352.44,1125.8L360.45,1130.56L368.46,1126.98L376.47,1127.93L384.48,1127.28L392.49,1130.92L400.5,1130.47L408.51,1130.84L416.52,1126.63L424.53,1128.26L432.54,1121.65L440.55,1123.48L448.56,1129.61L456.57,1123.4L464.58,1124.75L472.59,1122.73L480.6,1119.38L488.61,1125.09L496.62,1121.33L504.63,1128.5L512.64,1119.86L520.65,1130.54L528.66,1123.99L536.67,1131.45L544.68,1119.34L552.69,1126.46L560.7,1123.35L568.71,1113.88L576.72,1131.04L584.73,1126.65L592.74,1126.66L600.75,1129.3L608.76,1129.01L616.77,1124.64L624.78,1122.71L632.79,1107.97L640.8,1128.19L648.81,644.33L656.82,1127.85L664.83,1059.65L672.84,1120.18L680.85,1122.75L688.86,1129.98L696.87,1120.7L704.88,1129.55L712.89,1108.3L720.9,1118.59L728.91,795.52L736.92,1130.38L744.93,1127.3L752.94,1125.17L760.95,1121.83L768.96,1129.52L776.97,1123.41L784.98,1130.22L801,1127.85L809.01,1125.38L817.02,1129.46L825.03,1127.46L841.05,1129.08L849.06,1117.25L857.07,1122.14L865.08,1123.25L873.09,1106.86L881.1,1126.18L889.11,1115.29L897.12,1130L905.13,1126.03L913.14,1127.61L921.15,1124.15L929.16,1125.54L937.17,1105.55L945.18,1129.97L953.19,1124.13L961.2,1079.43L969.21,1100.8L977.22,1088.36L985.23,1130.04L993.24,1130.21L1001.25,1129.88L1009.26,1114.08L1017.27,1122.54L1025.28,1115.91L1033.29,1128.25L1041.3,1131.25L1049.31,1124.95L1057.32,1126.89L1065.33,1103.54L1073.34,1118.07L1081.35,1121.18L1089.36,1126.74L1113.39,1129.4L1121.4,1127.39L1129.41,1115.75L1137.42,1084.16L1145.43,1120.74L1153.44,1123.29L1161.45,1128.52L1169.46,1125.52L1177.47,1126.97L1185.48,1119.75L1193.49,1128.85L1201.51,1126.77L1209.52,1109.52L1217.53,1118.42L1225.54,1104.16L1233.55,1123.23L1241.56,1129.19L1249.57,1129.75L1257.58,1114.87L1265.59,1041.65L1273.6,1122.22L1281.61,1126.18L1289.62,1065.79L1297.63,1124.13L1305.64,1112.33L1313.65,1127.49L1321.66,1129.31L1329.67,1120.7L1337.68,1110.5L1345.69,1126.98L1353.7,1123.64L1361.71,1125.02L1369.72,1127.96L1377.73,1130.06L1385.74,1110.68L1393.75,1127.49L1401.76,1125.77L1409.77,1126.95L1417.78,1117.47L1425.79,1123.13L1433.8,1124.92L1441.81,1123.52L1449.82,1105.11L1457.83,1126.24L1465.84,1126.1L1473.85,1127.24L1481.86,1109.17L1489.87,1128.03L1497.88,1124.29L1505.89,1125.72L1513.9,1130.5L1521.91,1119.24L1529.92,892.4L1537.93,1126.2L1545.94,1124.59L1553.95,1122.2L1569.97,1118.09L1577.98,1121.16L1585.99,1125.11L1594,1123.22L1602.01,1112.61L1610.02,1124.88L1618.03,1109.47L1626.04,1122.46L1634.05,1126.06L1642.06,1027.51L1650.07,1127.12L1658.08,1118.32L1666.09,1126.77L1674.1,1094.81L1682.11,1127.86L1690.12,1120.87L1698.13,1126.83L1706.14,1114.65L1714.15,1121.06L1722.16,938.69L1730.17,1120.68L1738.18,1108.43L1746.19,1124.02L1754.2,1056.91L1762.21,1123.88L1770.22,1121.69L1778.23,1126.75L1786.24,1128.06L1794.25,1088.39L1802.26,914.56L1810.27,1127.86L1818.28,1118.68L1826.29,1082.15L1834.3,1127.15L1842.31,1121.92L1850.32,1124.73L1858.33,1123.31L1866.34,1126.37L1874.35,1126.23L1882.36,1114.48L1890.37,1127.07L1898.38,1126.72L1906.39,1129L1914.4,1112.36L1922.41,1128.5L1930.42,1125.39L1938.43,1107.88L1946.44,1125.76L1954.45,1119.33L1962.46,1121.57L1970.47,1099.93L1978.48,1126.75L1986.49,1121.37L1994.5,1102.23L2002.51,1099.38L2010.52,1128.91L2018.53,1123.87L2026.54,1127.01L2034.55,1127.01L2042.56,1128.76L2050.57,1125.16L2058.58,1125.57L2066.59,1119.15L2074.6,1124.9L2082.61,1119.76L2090.62,1080.29L2098.63,1118.43L2106.64,1122.44L2114.65,1128.62L2122.66,1113.46L2130.67,59.55L2138.68,1110.08L2154.7,1128.58L2162.71,1126.26L2170.72,1108.05L2178.73,1126.91L2186.74,1123.23L2194.75,1115.36L2202.76,1126.07L2210.77,1127.21L2218.78,1127.74L2226.79,1082.74L2234.8,1126.69L2242.81,1121.11L2250.82,1125.23L2258.83,1083.53L2266.84,1110.59L2274.85,1110.64L2282.86,1107.14L2290.87,1125.94L2298.88,1124.87L2306.89,1125.12L2314.9,1128.54L2322.91,1127.2L2330.92,1115.98L2338.93,1125.32L2346.94,1121.89L2354.95,1124.3L2362.96,1124.51L2370.97,1123.27L2378.98,1123.01L2386.99,1121.04L2395,1127.8" style="vector-effect: non-scaling-stroke; fill: none; stroke: rgb(31, 119, 180); stroke-opacity: 1; stroke-width: 2px; opacity: 1;"/></g><g class="points"/><g class="text"/></g><g class="trace scatter trace4c71a7" style="stroke-miterlimit: 2; opacity: 1;"><g class="fills"/><g class="errorbars"/><g class="lines"><path class="js-line" d="M0,1105.71L16.02,1105.71L24.03,627.57L40.05,627.57L48.06,1085.52L64.08,1085.52L72.09,1096.82L88.11,1096.82L96.12,1091.63L112.14,1091.63L120.15,1037.26L136.17,1037.26L144.18,1090.86L160.2,1090.86L168.21,1060.7L184.23,1060.7L192.24,1061.62L208.26,1061.62L216.27,1087.65L232.29,1087.65L240.3,944.26L256.32,944.26L264.33,1083.19L280.35,1083.19L288.36,1076.77L304.38,1076.77L312.39,1062.03L328.41,1062.03L336.42,1074.49L352.44,1074.49L360.45,1006.03L376.47,1006.03L384.48,1060.32L400.5,1060.32L408.51,1009.89L424.53,1009.89L432.54,1088.66L448.56,1088.66L456.57,1070.29L472.59,1070.29L480.6,1078.44L496.62,1078.44L504.63,1086.11L520.65,1086.11L528.66,1095.38L544.68,1095.38L552.69,946.77L568.71,946.77L576.72,1082.68L592.74,1082.68L600.75,1057.99L616.77,1057.99L624.78,1101.65L640.8,1101.65L648.81,919.55L664.83,919.55L672.84,1098.93L688.86,1098.93L696.87,1096.08L712.89,1096.08L720.9,1071.25L736.92,1071.25L744.93,1081.72L760.95,1081.72L768.96,1075.39L784.98,1075.39L792.99,1094.2L809.01,1094.2L817.02,1065.49L833.04,1065.49L841.05,1100L857.07,1100L865.08,1101.36L881.1,1101.36L889.11,1082.59L905.13,1082.59L913.14,1084.66L929.16,1084.66L937.17,1098.99L953.19,1098.99L961.2,993.31L977.22,993.31L985.23,1099.06L1001.25,1099.06L1009.26,1062L1025.28,1062L1033.29,1086.85L1049.31,1086.85L1057.32,1097.57L1073.34,1097.57L1081.35,1102.29L1097.37,1102.29L1105.38,1026.43L1121.4,1026.43L1129.41,1087.99L1145.43,1087.99L1153.44,1090.05L1169.46,1090.05L1177.47,1089.11L1193.49,1089.11L1201.51,1080.22L1217.53,1080.22L1225.54,1082.32L1241.56,1082.32L1249.57,1093.19L1265.59,1093.19L1273.6,1086.44L1289.62,1086.44L1297.63,1041.91L1313.65,1041.91L1321.66,1089.26L1337.68,1089.26L1345.69,1088.47L1361.71,1088.47L1369.72,1098.17L1385.74,1098.17L1393.75,1100.4L1409.77,1100.4L1417.78,1102.45L1433.8,1102.45L1441.81,1107.21L1457.83,1107.21L1465.84,1096.13L1481.86,1096.13L1489.87,1103.58L1505.89,1103.58L1513.9,1086.03L1529.92,1086.03L1537.93,1066.23L1553.95,1066.23L1561.96,1095.49L1577.98,1095.49L1585.99,1100.11L1602.01,1100.11L1610.02,1091.42L1626.04,1091.42L1634.05,1098.73L1650.07,1098.73L1658.08,1086.78L1674.1,1086.78L1682.11,1104.62L1698.13,1104.62L1706.14,1098.09L1722.16,1098.09L1730.17,1091.36L1746.19,1091.36L1754.2,1105.14L1770.22,1105.14L1778.23,1040.22L1794.25,1040.22L1802.26,1096.76L1818.28,1096.76L1826.29,1071.2L1842.31,1071.2L1850.32,1098.42L1866.34,1098.42L1874.35,1103.65L1890.37,1103.65L1898.38,1102.26L1914.4,1102.26L1922.41,1095.6L1938.43,1095.6L1946.44,913.84L1962.46,913.84L1970.47,1102.91L1986.49,1102.91L1994.5,789.94L2010.52,789.94L2018.53,1089.42L2034.55,1089.42L2042.56,1077.67L2058.58,1077.67L2066.59,1071.53L2082.61,1071.53L2090.62,1079.07L2106.64,1079.07L2114.65,1088.13L2130.67,1088.13L2138.68,1103.8L2154.7,1103.8L2162.71,1074.35L2178.73,1074.35L2186.74,1096.79L2202.76,1096.79L2210.77,1098.86L2226.79,1098.86L2234.8,1077.43L2250.82,1077.43L2258.83,1089.11L2274.85,1089.11L2282.86,1095.08L2298.88,1095.08L2306.89,1092.91L2322.91,1092.91L2330.92,1091.44L2346.94,1091.44L2354.95,991.6L2370.97,991.6L2378.98,1050.09L2395,1050.09" style="vector-effect: non-scaling-stroke; fill: none; stroke: rgb(255, 127, 14); stroke-opacity: 1; stroke-width: 2px; opacity: 1;"/></g><g class="points"/><g class="text"/></g></g></g><g class="overplot"/><path class="xlines-above crisp" d="M0,0" style="fill: none;"/><path class="ylines-above crisp" d="M0,0" style="fill: none;"/><g class="overlines-above"/><g class="xaxislayer-above"><g class="xtick"><text text-anchor="middle" x="0" y="1264" transform="translate(60,0)" style="font-family: 'Open Sans', verdana, arial, sans-serif; font-size: 12px; fill: rgb(68, 68, 68); fill-opacity: 1; white-space: pre;">0</text></g><g class="xtick"><text text-anchor="middle" x="0" y="1264" transform="translate(460.5,0)" style="font-family: 'Open Sans', verdana, arial, sans-serif; font-size: 12px; fill: rgb(68, 68, 68); fill-opacity: 1; white-space: pre;">50</text></g><g class="xtick"><text text-anchor="middle" x="0" y="1264" transform="translate(861,0)" style="font-family: 'Open Sans', verdana, arial, sans-serif; font-size: 12px; fill: rgb(68, 68, 68); fill-opacity: 1; white-space: pre;">100</text></g><g class="xtick"><text text-anchor="middle" x="0" y="1264" transform="translate(1261.51,0)" style="font-family: 'Open Sans', verdana, arial, sans-serif; font-size: 12px; fill: rgb(68, 68, 68); fill-opacity: 1; white-space: pre;">150</text></g><g class="xtick"><text text-anchor="middle" x="0" y="1264" transform="translate(1662.01,0)" style="font-family: 'Open Sans', verdana, arial, sans-serif; font-size: 12px; fill: rgb(68, 68, 68); fill-opacity: 1; white-space: pre;">200</text></g><g class="xtick"><text text-anchor="middle" x="0" y="1264" transform="translate(2062.51,0)" style="font-family: 'Open Sans', verdana, arial, sans-serif; font-size: 12px; fill: rgb(68, 68, 68); fill-opacity: 1; white-space: pre;">250</text></g></g><g class="yaxislayer-above"><g class="ytick"><text text-anchor="end" x="59" y="4.199999999999999" transform="translate(0,1209.31)" style="font-family: 'Open Sans', verdana, arial, sans-serif; font-size: 12px; fill: rgb(68, 68, 68); fill-opacity: 1; white-space: pre;">0</text></g><g class="ytick"><text text-anchor="end" x="59" y="4.199999999999999" transform="translate(0,1044.3899999999999)" style="font-family: 'Open Sans', verdana, arial, sans-serif; font-size: 12px; fill: rgb(68, 68, 68); fill-opacity: 1; white-space: pre;">500</text></g><g class="ytick"><text text-anchor="end" x="59" y="4.199999999999999" transform="translate(0,879.47)" style="font-family: 'Open Sans', verdana, arial, sans-serif; font-size: 12px; fill: rgb(68, 68, 68); fill-opacity: 1; white-space: pre;">1000</text></g><g class="ytick"><text text-anchor="end" x="59" y="4.199999999999999" transform="translate(0,714.55)" style="font-family: 'Open Sans', verdana, arial, sans-serif; font-size: 12px; fill: rgb(68, 68, 68); fill-opacity: 1; white-space: pre;">1500</text></g><g class="ytick"><text text-anchor="end" x="59" y="4.199999999999999" transform="translate(0,549.63)" style="font-family: 'Open Sans', verdana, arial, sans-serif; font-size: 12px; fill: rgb(68, 68, 68); fill-opacity: 1; white-space: pre;">2000</text></g><g class="ytick"><text text-anchor="end" x="59" y="4.199999999999999" transform="translate(0,384.71)" style="font-family: 'Open Sans', verdana, arial, sans-serif; font-size: 12px; fill: rgb(68, 68, 68); fill-opacity: 1; white-space: pre;">2500</text></g><g class="ytick"><text text-anchor="end" x="59" y="4.199999999999999" transform="translate(0,219.79)" style="font-family: 'Open Sans', verdana, arial, sans-serif; font-size: 12px; fill: rgb(68, 68, 68); fill-opacity: 1; white-space: pre;">3000</text></g></g><g class="overaxes-above"/></g></g><g class="polarlayer"/><g class="ternarylayer"/><g class="geolayer"/><g class="funnelarealayer"/><g class="pielayer"/><g class="treemaplayer"/><g class="sunburstlayer"/><g class="glimages"/><defs id="topdefs-a08cfd"><g class="clips"/></defs><g class="layer-above"><g class="imagelayer"/><g class="shapelayer"/></g><g class="infolayer"><g class="g-gtitle"/><g class="g-xtitle"/><g class="g-ytitle"/></g></svg>