<svg class="main-svg" xmlns="http://www.w3.org/2000/svg" xmlns:xlink="http://www.w3.org/1999/xlink" width="2514.98" height="1310.98" style="" viewBox="0 0 2514.98 1310.98"><rect x="0" y="0" width="2514.98" height="1310.98" style="fill: rgb(255, 255, 255); fill-opacity: 1;"/><defs id="defs-70430e"><g class="clips"><clipPath id="clip70430exyplot" class="plotclip"><rect width="2395" height="1191"/></clipPath><clipPath class="axesclip" id="clip70430ex"><rect x="60" y="0" width="2395" height="1310.98"/></clipPath><clipPath class="axesclip" id="clip70430ey"><rect x="0" y="60" width="2514.98" height="1191"/></clipPath><clipPath class="axesclip" id="clip70430exy"><rect x="60" y="60" width="2395" height="1191"/></clipPath></g><g class="gradients"/></defs><g class="bglayer"/><g class="layer-below"><g class="imagelayer"/><g class="shapelayer"/></g><g class="cartesianlayer"><g class="subplot xy"><g class="layer-subplot"><g class="shapelayer"/><g class="imagelayer"/></g><g class="gridlayer"><g class="x"><path class="xgrid crisp" transform="translate(309.48,0)" d="M0,60v1191" style="stroke: rgb(238, 238, 238); stroke-opacity: 1; stroke-width: 1px;"/><path class="xgrid crisp" transform="translate(558.96,0)" d="M0,60v1191" style="stroke: rgb(238, 238, 238); stroke-opacity: 1; stroke-width: 1px;"/><path class="xgrid crisp" transform="translate(808.44,0)" d="M0,60v1191" style="stroke: rgb(238, 238, 238); stroke-opacity: 1; stroke-width: 1px;"/><path class="xgrid crisp" transform="translate(1057.92,0)" d="M0,60v1191" style="stroke: rgb(238, 238, 238); stroke-opacity: 1; stroke-width: 1px;"/><path class="xgrid crisp" transform="translate(1307.4,0)" d="M0,60v1191" style="stroke: rgb(238, 238, 238); stroke-opacity: 1; stroke-width: 1px;"/><path class="xgrid crisp" transform="translate(1556.88,0)" d="M0,60v1191" style="stroke: rgb(238, 238, 238); stroke-opacity: 1; stroke-width: 1px;"/><path class="xgrid crisp" transform="translate(1806.35,0)" d="M0,60v1191" style="stroke: rgb(238, 238, 238); stroke-opacity: 1; stroke-width: 1px;"/><path class="xgrid crisp" transform="translate(2055.83,0)" d="M0,60v1191" style="stroke: rgb(238, 238, 238); stroke-opacity: 1; stroke-width: 1px;"/><path class="xgrid crisp" transform="translate(2305.31,0)" d="M0,60v1191" style="stroke: rgb(238, 238, 238); stroke-opacity: 1; stroke-width: 1px;"/></g><g class="y"><path class="ygrid crisp" transform="translate(0,1152.07)" d="M60,0h2395" style="stroke: rgb(238, 238, 238); stroke-opacity: 1; stroke-width: 1px;"/><path class="ygrid crisp" transform="translate(0,946.27)" d="M60,0h2395" style="stroke: rgb(238, 238, 238); stroke-opacity: 1; stroke-width: 1px;"/><path class="ygrid crisp" transform="translate(0,740.48)" d="M60,0h2395" style="stroke: rgb(238, 238, 238); stroke-opacity: 1; stroke-width: 1px;"/><path class="ygrid crisp" transform="translate(0,534.69)" d="M60,0h2395" style="stroke: rgb(238, 238, 238); stroke-opacity: 1; stroke-width: 1px;"/><path class="ygrid crisp" transform="translate(0,328.89)" d="M60,0h2395" style="stroke: rgb(238, 238, 238); stroke-opacity: 1; stroke-width: 1px;"/><path class="ygrid crisp" transform="translate(0,123.1)" d="M60,0h2395" style="stroke: rgb(238, 238, 238); stroke-opacity: 1; stroke-width: 1px;"/></g></g><g class="zerolinelayer"><path class="xzl zl crisp" transform="translate(60,0)" d="M0,60v1191" style="stroke: rgb(68, 68, 68); stroke-opacity: 1; stroke-width: 1px;"/></g><path class="xlines-below"/><path class="ylines-below"/><g class="overlines-below"/><g class="xaxislayer-below"/><g class="yaxislayer-below"/><g class="overaxes-below"/><g class="plot" transform="translate(60,60)" clip-path="url('#clip70430exyplot')"><g class="scatterlayer mlayer"><g class="trace scatter trace66ea01" style="stroke-miterlimit: 2; opacity: 1;"><g class="fills"/><g class="errorbars"/><g class="lines"><path class="js-line" d="M0,64.58L12.47,688.53L24.95,831.09L37.42,982.54L49.9,1058.76L62.37,1061.98L74.84,1070.91L87.32,1079.69L99.79,1092.97L112.27,1083.93L124.74,1088.08L137.21,1075.45L149.69,1089.96L162.16,1096.25L174.64,1099.46L187.11,1092.33L199.58,1098.55L212.06,1093.33L224.53,1095.41L237.01,1107.75L249.48,1103.59L261.95,1110.27L274.43,1105.7L286.9,1110.71L299.38,1109.3L311.85,1109.96L324.32,1109.39L336.8,1107.35L349.27,1101.47L361.74,1107.76L374.22,1111.69L386.69,1105.97L399.17,1108.41L411.64,1107.09L424.11,1110.5L436.59,1107.31L449.06,1116.58L461.54,1112.75L474.01,1112.66L486.48,1112.55L498.96,1116.96L523.91,1111.88L536.38,1115.36L548.85,1108.17L561.33,1125.41L573.8,1106.23L586.28,1117.82L598.75,1108.66L611.22,1105.63L623.7,1114.47L636.17,1111.29L648.65,1115.87L661.12,1113.07L673.59,1116.66L686.07,1117.85L698.54,1110.04L711.02,1127.1L723.49,1115.69L735.96,1115.47L748.44,1117.03L760.91,1113.16L773.39,1117.51L785.86,1113.85L798.33,1118.73L810.81,1113.84L823.28,1119.46L835.76,1105.75L860.7,1123.84L873.18,1121.27L885.65,1117.44L898.13,1120.64L910.6,1117.62L923.07,1115.65L935.55,1121.48L948.02,1121.22L960.49,1123.7L972.97,1113.58L985.44,1112.1L997.92,1121.85L1010.39,1116.69L1022.86,1121.11L1035.34,1113.92L1047.81,1111.67L1060.29,1118.3L1072.76,1113.32L1085.23,1117.17L1097.71,1117.34L1110.18,1125.81L1122.66,1125.14L1135.13,1120.57L1147.6,1120.02L1160.08,1126.34L1172.55,1122.59L1185.03,1117.86L1197.5,1118.04L1209.97,1117.4L1222.45,1115.9L1234.92,1103.52L1247.4,1118.1L1259.87,1124.2L1272.34,1118.63L1284.82,1118.71L1297.29,1124.43L1309.77,1111.71L1322.24,1118.46L1334.71,1111.02L1347.19,1110.83L1359.66,1112.21L1372.14,1120.12L1384.61,1123.38L1397.08,1110.83L1409.56,1112.8L1422.03,1107.45L1434.51,1107.59L1446.98,1111.73L1459.45,1121.22L1471.93,1112.91L1484.4,1116.29L1496.88,1115.18L1509.35,1116.88L1521.82,1114.36L1534.3,1119.95L1546.77,1114.97L1559.24,1123.46L1571.72,1116.15L1584.19,1120.91L1596.67,1117.61L1609.14,1123.85L1621.61,1120.87L1634.09,1119.97L1646.56,1111.7L1659.04,1124.04L1671.51,1121.95L1683.98,1118.64L1696.46,1118.98L1708.93,1119.81L1721.41,1115.4L1733.88,1118.81L1746.35,1119.74L1758.83,1120.79L1771.3,1123.62L1783.78,1117.16L1796.25,1123.44L1808.72,1126.35L1821.2,1123.24L1846.15,1119.13L1858.62,1122.86L1871.09,1119.27L1883.57,1121.55L1896.04,1126.48L1908.52,1124.98L1920.99,1124.59L1933.46,1126.25L1945.94,1131.45L1958.41,1124.39L1970.89,1122.59L1983.36,1121.79L1995.83,1117.39L2008.31,1114.64L2020.78,1125.3L2033.26,1121.35L2045.73,1108.27L2058.2,1119.28L2070.68,1118.99L2083.15,1123.34L2095.63,1126.71L2108.1,1121.24L2120.57,1118.2L2133.05,1130.82L2145.52,1122.58L2157.99,1125.1L2170.47,1118.91L2182.94,1118.42L2195.42,1118.56L2207.89,1122.32L2220.36,1123.09L2232.84,1118.38L2245.31,1115.47L2257.79,1116.3L2270.26,1116.85L2282.73,1121.11L2295.21,1118.59L2307.68,1121.18L2320.16,1125.57L2332.63,1116.75L2345.1,1117.08L2357.58,1126.27L2370.05,1114.18L2382.53,1110.83L2395,1108.52" style="vector-effect: non-scaling-stroke; fill: none; stroke: rgb(31, 119, 180); stroke-opacity: 1; stroke-width: 2px; opacity: 1;"/></g><g class="points"/><g class="text"/></g><g class="trace scatter trace57e5c0" style="stroke-miterlimit: 2; opacity: 1;"><g class="fills"/><g class="errorbars"/><g class="lines"><path class="js-line" d="M0,59.55L24.95,59.55L37.42,736.4L62.37,736.4L74.84,733.28L99.79,733.28L112.27,695.31L137.21,695.31L149.69,727.01L174.64,727.01L187.11,705.52L212.06,705.52L224.53,713.28L249.48,713.28L261.95,701.33L286.9,701.33L299.38,715.57L324.32,715.57L336.8,712.63L361.74,712.63L374.22,716.76L399.17,716.76L411.64,709.01L436.59,709.01L449.06,714.72L474.01,714.72L486.48,695.1L511.43,695.1L523.91,705.43L548.85,705.43L561.33,714.85L586.28,714.85L598.75,700L623.7,700L636.17,707.92L661.12,707.92L673.59,703.59L698.54,703.59L711.02,695.12L735.96,695.12L748.44,721.47L773.39,721.47L785.86,705.63L810.81,705.63L823.28,697.42L848.23,697.42L860.7,710.79L923.07,710.91L935.55,703.09L960.49,703.09L972.97,700L997.92,700L1010.39,706.92L1035.34,706.92L1047.81,705.55L1072.76,705.55L1085.23,727.36L1110.18,727.36L1122.66,703.37L1147.6,703.37L1160.08,710.51L1185.03,710.51L1197.5,690.17L1222.45,690.17L1234.92,717.47L1259.87,717.47L1272.34,699.07L1297.29,699.07L1309.77,715.38L1334.71,715.38L1347.19,684.66L1372.14,684.66L1384.61,685.93L1409.56,685.93L1422.03,704.37L1446.98,704.37L1459.45,701.7L1484.4,701.7L1496.88,706.87L1521.82,706.87L1534.3,696.76L1559.24,696.76L1571.72,699.68L1596.67,699.68L1609.14,698.44L1634.09,698.44L1646.56,702.88L1671.51,702.88L1683.98,696.48L1746.35,696.55L1758.83,715.19L1783.78,715.19L1796.25,710.88L1821.2,710.88L1833.67,703.11L1858.62,703.11L1871.09,698.9L1896.04,698.9L1908.52,696.51L1933.46,696.51L1945.94,701.79L1970.89,701.79L1983.36,696.94L2045.73,697.21L2058.2,692.4L2083.15,692.4L2095.63,709.47L2120.57,709.47L2133.05,685.61L2157.99,685.61L2170.47,698.39L2195.42,698.39L2207.89,690.36L2232.84,690.36L2245.31,699.64L2270.26,699.64L2282.73,689.85L2345.1,690.42L2357.58,710.89L2382.53,710.89L2395,664.67" style="vector-effect: non-scaling-stroke; fill: none; stroke: rgb(255, 127, 14); stroke-opacity: 1; stroke-width: 2px; opacity: 1;"/></g><g class="points"/><g class="text"/></g></g></g><g class="overplot"/><path class="xlines-above crisp" d="M0,0" style="fill: none;"/><path class="ylines-above crisp" d="M0,0" style="fill: none;"/><g class="overlines-above"/><g class="xaxislayer-above"><g class="xtick"><text text-anchor="middle" x="0" y="1264" transform="translate(60,0)" style="font-family: 'Open Sans', verdana, arial, sans-serif; font-size: 12px; fill: rgb(68, 68, 68); fill-opacity: 1; white-space: pre;">0</text></g><g class="xtick"><text text-anchor="middle" x="0" y="1264" transform="translate(309.48,0)" style="font-family: 'Open Sans', verdana, arial, sans-serif; font-size: 12px; fill: rgb(68, 68, 68); fill-opacity: 1; white-space: pre;">20</text></g><g class="xtick"><text text-anchor="middle" x="0" y="1264" transform="translate(558.96,0)" style="font-family: 'Open Sans', verdana, arial, sans-serif; font-size: 12px; fill: rgb(68, 68, 68); fill-opacity: 1; white-space: pre;">40</text></g><g class="xtick"><text text-anchor="middle" x="0" y="1264" transform="translate(808.44,0)" style="font-family: 'Open Sans', verdana, arial, sans-serif; font-size: 12px; fill: rgb(68, 68, 68); fill-opacity: 1; white-space: pre;">60</text></g><g class="xtick"><text text-anchor="middle" x="0" y="1264" transform="translate(1057.92,0)" style="font-family: 'Open Sans', verdana, arial, sans-serif; font-size: 12px; fill: rgb(68, 68, 68); fill-opacity: 1; white-space: pre;">80</text></g><g class="xtick"><text text-anchor="middle" x="0" y="1264" transform="translate(1307.4,0)" style="font-family: 'Open Sans', verdana, arial, sans-serif; font-size: 12px; fill: rgb(68, 68, 68); fill-opacity: 1; white-space: pre;">100</text></g><g class="xtick"><text text-anchor="middle" x="0" y="1264" transform="translate(1556.88,0)" style="font-family: 'Open Sans', verdana, arial, sans-serif; font-size: 12px; fill: rgb(68, 68, 68); fill-opacity: 1; white-space: pre;">120</text></g><g class="xtick"><text text-anchor="middle" x="0" y="1264" transform="translate(1806.35,0)" style="font-family: 'Open Sans', verdana, arial, sans-serif; font-size: 12px; fill: rgb(68, 68, 68); fill-opacity: 1; white-space: pre;">140</text></g><g class="xtick"><text text-anchor="middle" x="0" y="1264" transform="translate(2055.83,0)" style="font-family: 'Open Sans', verdana, arial, sans-serif; font-size: 12px; fill: rgb(68, 68, 68); fill-opacity: 1; white-space: pre;">160</text></g><g class="xtick"><text text-anchor="middle" x="0" y="1264" transform="translate(2305.31,0)" style="font-family: 'Open Sans', verdana, arial, sans-serif; font-size: 12px; fill: rgb(68, 68, 68); fill-opacity: 1; white-space: pre;">180</text></g></g><g class="yaxislayer-above"><g class="ytick"><text text-anchor="end" x="59" y="4.199999999999999" transform="translate(0,1152.07)" style="font-family: 'Open Sans', verdana, arial, sans-serif; font-size: 12px; fill: rgb(68, 68, 68); fill-opacity: 1; white-space: pre;">4</text></g><g class="ytick"><text text-anchor="end" x="59" y="4.199999999999999" transform="translate(0,946.27)" style="font-family: 'Open Sans', verdana, arial, sans-serif; font-size: 12px; fill: rgb(68, 68, 68); fill-opacity: 1; white-space: pre;">6</text></g><g class="ytick"><text text-anchor="end" x="59" y="4.199999999999999" transform="translate(0,740.48)" style="font-family: 'Open Sans', verdana, arial, sans-serif; font-size: 12px; fill: rgb(68, 68, 68); fill-opacity: 1; white-space: pre;">8</text></g><g class="ytick"><text text-anchor="end" x="59" y="4.199999999999999" transform="translate(0,534.69)" style="font-family: 'Open Sans', verdana, arial, sans-serif; font-size: 12px; fill: rgb(68, 68, 68); fill-opacity: 1; white-space: pre;">10</text></g><g class="ytick"><text text-anchor="end" x="59" y="4.199999999999999" transform="translate(0,328.89)" style="font-family: 'Open Sans', verdana, arial, sans-serif; font-size: 12px; fill: rgb(68, 68, 68); fill-opacity: 1; white-space: pre;">12</text></g><g class="ytick"><text text-anchor="end" x="59" y="4.199999999999999" transform="translate(0,123.1)" style="font-family: 'Open Sans', verdana, arial, sans-serif; font-size: 12px; fill: rgb(68, 68, 68); fill-opacity: 1; white-space: pre;">14</text></g></g><g class="overaxes-above"/></g></g><g class="polarlayer"/><g class="ternarylayer"/><g class="geolayer"/><g class="funnelarealayer"/><g class="pielayer"/><g class="treemaplayer"/><g class="sunburstlayer"/><g class="glimages"/><defs id="topdefs-70430e"><g class="clips"/></defs><g class="layer-above"><g class="imagelayer"/><g class="shapelayer"/></g><g class="infolayer"><g class="g-gtitle"/><g class="g-xtitle"/><g class="g-ytitle"/></g></svg>