<svg class="main-svg" xmlns="http://www.w3.org/2000/svg" xmlns:xlink="http://www.w3.org/1999/xlink" width="1263.99" height="755.981" style="" viewBox="0 0 1263.99 755.981"><rect x="0" y="0" width="1263.99" height="755.981" style="fill: rgb(255, 255, 255); fill-opacity: 1;"/><defs id="defs-b6670c"><g class="clips"><clipPath id="clipb6670cxyplot" class="plotclip"><rect width="1144" height="636"/></clipPath><clipPath class="axesclip" id="clipb6670cx"><rect x="60" y="0" width="1144" height="755.981"/></clipPath><clipPath class="axesclip" id="clipb6670cy"><rect x="0" y="60" width="1263.99" height="636"/></clipPath><clipPath class="axesclip" id="clipb6670cxy"><rect x="60" y="60" width="1144" height="636"/></clipPath></g><g class="gradients"/></defs><g class="bglayer"/><g class="layer-below"><g class="imagelayer"/><g class="shapelayer"/></g><g class="cartesianlayer"><g class="subplot xy"><g class="layer-subplot"><g class="shapelayer"/><g class="imagelayer"/></g><g class="gridlayer"><g class="x"><path class="xgrid crisp" transform="translate(175.56,0)" d="M0,60v636" style="stroke: rgb(238, 238, 238); stroke-opacity: 1; stroke-width: 1px;"/><path class="xgrid crisp" transform="translate(291.11,0)" d="M0,60v636" style="stroke: rgb(238, 238, 238); stroke-opacity: 1; stroke-width: 1px;"/><path class="xgrid crisp" transform="translate(406.67,0)" d="M0,60v636" style="stroke: rgb(238, 238, 238); stroke-opacity: 1; stroke-width: 1px;"/><path class="xgrid crisp" transform="translate(522.22,0)" d="M0,60v636" style="stroke: rgb(238, 238, 238); stroke-opacity: 1; stroke-width: 1px;"/><path class="xgrid crisp" transform="translate(637.78,0)" d="M0,60v636" style="stroke: rgb(238, 238, 238); stroke-opacity: 1; stroke-width: 1px;"/><path class="xgrid crisp" transform="translate(753.33,0)" d="M0,60v636" style="stroke: rgb(238, 238, 238); stroke-opacity: 1; stroke-width: 1px;"/><path class="xgrid crisp" transform="translate(868.89,0)" d="M0,60v636" style="stroke: rgb(238, 238, 238); stroke-opacity: 1; stroke-width: 1px;"/><path class="xgrid crisp" transform="translate(984.44,0)" d="M0,60v636" style="stroke: rgb(238, 238, 238); stroke-opacity: 1; stroke-width: 1px;"/><path class="xgrid crisp" transform="translate(1100,0)" d="M0,60v636" style="stroke: rgb(238, 238, 238); stroke-opacity: 1; stroke-width: 1px;"/></g><g class="y"><path class="ygrid crisp" transform="translate(0,563.06)" d="M60,0h1144" style="stroke: rgb(238, 238, 238); stroke-opacity: 1; stroke-width: 1px;"/><path class="ygrid crisp" transform="translate(0,460.73)" d="M60,0h1144" style="stroke: rgb(238, 238, 238); stroke-opacity: 1; stroke-width: 1px;"/><path class="ygrid crisp" transform="translate(0,358.4)" d="M60,0h1144" style="stroke: rgb(238, 238, 238); stroke-opacity: 1; stroke-width: 1px;"/><path class="ygrid crisp" transform="translate(0,256.07)" d="M60,0h1144" style="stroke: rgb(238, 238, 238); stroke-opacity: 1; stroke-width: 1px;"/><path class="ygrid crisp" transform="translate(0,153.74)" d="M60,0h1144" style="stroke: rgb(238, 238, 238); stroke-opacity: 1; stroke-width: 1px;"/></g></g><g class="zerolinelayer"><path class="xzl zl crisp" transform="translate(60,0)" d="M0,60v636" style="stroke: rgb(68, 68, 68); stroke-opacity: 1; stroke-width: 1px;"/><path class="yzl zl crisp" transform="translate(0,665.39)" d="M60,0h1144" style="stroke: rgb(68, 68, 68); stroke-opacity: 1; stroke-width: 1px;"/></g><path class="xlines-below"/><path class="ylines-below"/><g class="overlines-below"/><g class="xaxislayer-below"/><g class="yaxislayer-below"/><g class="overaxes-below"/><g class="plot" transform="translate(60,60)" clip-path="url('#clipb6670cxyplot')"><g class="scatterlayer mlayer"><g class="trace scatter trace4a9ac9" style="stroke-miterlimit: 2; opacity: 1;"><g class="fills"/><g class="errorbars"/><g class="lines"><path class="js-line" d="M0,31.8L11.56,391.62L23.11,461.47L34.67,511.69L46.22,539.42L57.78,554.6L69.33,567.96L80.89,565.86L92.44,576.97L104,581.74L115.56,585.65L127.11,589.35L138.67,590.14L150.22,592.6L161.78,592.07L173.33,595.46L184.89,594.5L196.44,590.18L208,594.82L219.56,594.25L231.11,591.93L242.67,594.14L254.22,598.38L265.78,599.33L277.33,599.08L300.44,599.03L312,600.49L335.11,600.15L346.67,601.12L392.89,601.18L404.44,600.1L416,599.44L427.56,600.57L462.22,601.75L473.78,601.76L531.56,600.92L543.11,600.6L554.67,602.12L566.22,600.77L577.78,596.86L589.33,597.81L600.89,599.82L612.44,599.22L624,601.08L635.56,601.6L658.67,602.01L670.22,601.49L681.78,602.47L693.33,602.33L704.89,602.97L716.44,602.78L739.56,603.49L751.11,603.2L797.33,603.76L808.89,602.44L855.11,603.1L866.67,603.67L912.89,603.74L924.44,603.65L947.56,603.33L959.11,603.03L993.78,603.03L1005.33,603.03L1051.56,604.16L1063.11,603.86L1120.89,604.03L1132.44,603.69L1144,602.65" style="vector-effect: non-scaling-stroke; fill: none; stroke: rgb(31, 119, 180); stroke-opacity: 1; stroke-width: 2px; opacity: 1;"/></g><g class="points"/><g class="text"/></g><g class="trace scatter tracecae0c7" style="stroke-miterlimit: 2; opacity: 1;"><g class="fills"/><g class="errorbars"/><g class="lines"><path class="js-line" d="M0,383.87L23.11,383.87L34.67,519.13L57.78,519.13L69.33,549.71L92.44,549.71L104,561.14L127.11,561.14L138.67,571.56L161.78,571.56L173.33,576.08L196.44,576.08L208,563.54L231.11,563.54L242.67,573.27L265.78,573.27L277.33,576.77L300.44,576.77L312,572.8L335.11,572.8L346.67,580.54L369.78,580.54L381.33,575.6L404.44,575.6L416,577.7L439.11,577.7L450.67,582.43L473.78,582.43L485.33,586.55L508.44,586.55L520,582.38L577.78,582.35L589.33,583.17L612.44,583.17L624,582.16L647.11,582.16L658.67,582.95L681.78,582.95L693.33,580.4L716.44,580.4L728,583.17L820.44,583.58L832,574.68L855.11,574.68L866.67,585.18L889.78,585.18L901.33,584.02L924.44,584.02L936,583.18L959.11,583.18L970.67,581.39L993.78,581.39L1005.33,582.36L1028.44,582.36L1040,583.62L1063.11,583.62L1074.67,585.15L1132.44,584.78L1144,580.73" style="vector-effect: non-scaling-stroke; fill: none; stroke: rgb(255, 127, 14); stroke-opacity: 1; stroke-width: 2px; opacity: 1;"/></g><g class="points"/><g class="text"/></g></g></g><g class="overplot"/><path class="xlines-above crisp" d="M0,0" style="fill: none;"/><path class="ylines-above crisp" d="M0,0" style="fill: none;"/><g class="overlines-above"/><g class="xaxislayer-above"><g class="xtick"><text text-anchor="middle" x="0" y="709" transform="translate(60,0)" style="font-family: 'Open Sans', verdana, arial, sans-serif; font-size: 12px; fill: rgb(68, 68, 68); fill-opacity: 1; white-space: pre;">0</text></g><g class="xtick"><text text-anchor="middle" x="0" y="709" transform="translate(175.56,0)" style="font-family: 'Open Sans', verdana, arial, sans-serif; font-size: 12px; fill: rgb(68, 68, 68); fill-opacity: 1; white-space: pre;">10</text></g><g class="xtick"><text text-anchor="middle" x="0" y="709" transform="translate(291.11,0)" style="font-family: 'Open Sans', verdana, arial, sans-serif; font-size: 12px; fill: rgb(68, 68, 68); fill-opacity: 1; white-space: pre;">20</text></g><g class="xtick"><text text-anchor="middle" x="0" y="709" transform="translate(406.67,0)" style="font-family: 'Open Sans', verdana, arial, sans-serif; font-size: 12px; fill: rgb(68, 68, 68); fill-opacity: 1; white-space: pre;">30</text></g><g class="xtick"><text text-anchor="middle" x="0" y="709" transform="translate(522.22,0)" style="font-family: 'Open Sans', verdana, arial, sans-serif; font-size: 12px; fill: rgb(68, 68, 68); fill-opacity: 1; white-space: pre;">40</text></g><g class="xtick"><text text-anchor="middle" x="0" y="709" transform="translate(637.78,0)" style="font-family: 'Open Sans', verdana, arial, sans-serif; font-size: 12px; fill: rgb(68, 68, 68); fill-opacity: 1; white-space: pre;">50</text></g><g class="xtick"><text text-anchor="middle" x="0" y="709" transform="translate(753.33,0)" style="font-family: 'Open Sans', verdana, arial, sans-serif; font-size: 12px; fill: rgb(68, 68, 68); fill-opacity: 1; white-space: pre;">60</text></g><g class="xtick"><text text-anchor="middle" x="0" y="709" transform="translate(868.89,0)" style="font-family: 'Open Sans', verdana, arial, sans-serif; font-size: 12px; fill: rgb(68, 68, 68); fill-opacity: 1; white-space: pre;">70</text></g><g class="xtick"><text text-anchor="middle" x="0" y="709" transform="translate(984.44,0)" style="font-family: 'Open Sans', verdana, arial, sans-serif; font-size: 12px; fill: rgb(68, 68, 68); fill-opacity: 1; white-space: pre;">80</text></g><g class="xtick"><text text-anchor="middle" x="0" y="709" transform="translate(1100,0)" style="font-family: 'Open Sans', verdana, arial, sans-serif; font-size: 12px; fill: rgb(68, 68, 68); fill-opacity: 1; white-space: pre;">90</text></g></g><g class="yaxislayer-above"><g class="ytick"><text text-anchor="end" x="59" y="4.199999999999999" transform="translate(0,665.39)" style="font-family: 'Open Sans', verdana, arial, sans-serif; font-size: 12px; fill: rgb(68, 68, 68); fill-opacity: 1; white-space: pre;">0</text></g><g class="ytick"><text text-anchor="end" x="59" y="4.199999999999999" transform="translate(0,563.06)" style="font-family: 'Open Sans', verdana, arial, sans-serif; font-size: 12px; fill: rgb(68, 68, 68); fill-opacity: 1; white-space: pre;">2</text></g><g class="ytick"><text text-anchor="end" x="59" y="4.199999999999999" transform="translate(0,460.73)" style="font-family: 'Open Sans', verdana, arial, sans-serif; font-size: 12px; fill: rgb(68, 68, 68); fill-opacity: 1; white-space: pre;">4</text></g><g class="ytick"><text text-anchor="end" x="59" y="4.199999999999999" transform="translate(0,358.4)" style="font-family: 'Open Sans', verdana, arial, sans-serif; font-size: 12px; fill: rgb(68, 68, 68); fill-opacity: 1; white-space: pre;">6</text></g><g class="ytick"><text text-anchor="end" x="59" y="4.199999999999999" transform="translate(0,256.07)" style="font-family: 'Open Sans', verdana, arial, sans-serif; font-size: 12px; fill: rgb(68, 68, 68); fill-opacity: 1; white-space: pre;">8</text></g><g class="ytick"><text text-anchor="end" x="59" y="4.199999999999999" transform="translate(0,153.74)" style="font-family: 'Open Sans', verdana, arial, sans-serif; font-size: 12px; fill: rgb(68, 68, 68); fill-opacity: 1; white-space: pre;">10</text></g></g><g class="overaxes-above"/></g></g><g class="polarlayer"/><g class="ternarylayer"/><g class="geolayer"/><g class="funnelarealayer"/><g class="pielayer"/><g class="treemaplayer"/><g class="sunburstlayer"/><g class="glimages"/><defs id="topdefs-b6670c"><g class="clips"/></defs><g class="layer-above"><g class="imagelayer"/><g class="shapelayer"/></g><g class="infolayer"><g class="g-gtitle"/><g class="g-xtitle"/><g class="g-ytitle"/></g></svg>