<svg class="main-svg" xmlns="http://www.w3.org/2000/svg" xmlns:xlink="http://www.w3.org/1999/xlink" width="1264.99" height="755.977" style="" viewBox="0 0 1264.99 755.977"><rect x="0" y="0" width="1264.99" height="755.977" style="fill: rgb(255, 255, 255); fill-opacity: 1;"/><defs id="defs-34ccec"><g class="clips"><clipPath id="clip34ccecxyplot" class="plotclip"><rect width="1145" height="636"/></clipPath><clipPath class="axesclip" id="clip34ccecx"><rect x="60" y="0" width="1145" height="755.977"/></clipPath><clipPath class="axesclip" id="clip34ccecy"><rect x="0" y="60" width="1264.99" height="636"/></clipPath><clipPath class="axesclip" id="clip34ccecxy"><rect x="60" y="60" width="1145" height="636"/></clipPath></g><g class="gradients"/></defs><g class="bglayer"/><g class="layer-below"><g class="imagelayer"/><g class="shapelayer"/></g><g class="cartesianlayer"><g class="subplot xy"><g class="layer-subplot"><g class="shapelayer"/><g class="imagelayer"/></g><g class="gridlayer"><g class="x"><path class="xgrid crisp" transform="translate(175.66,0)" d="M0,60v636" style="stroke: rgb(238, 238, 238); stroke-opacity: 1; stroke-width: 1px;"/><path class="xgrid crisp" transform="translate(291.31,0)" d="M0,60v636" style="stroke: rgb(238, 238, 238); stroke-opacity: 1; stroke-width: 1px;"/><path class="xgrid crisp" transform="translate(406.97,0)" d="M0,60v636" style="stroke: rgb(238, 238, 238); stroke-opacity: 1; stroke-width: 1px;"/><path class="xgrid crisp" transform="translate(522.63,0)" d="M0,60v636" style="stroke: rgb(238, 238, 238); stroke-opacity: 1; stroke-width: 1px;"/><path class="xgrid crisp" transform="translate(638.28,0)" d="M0,60v636" style="stroke: rgb(238, 238, 238); stroke-opacity: 1; stroke-width: 1px;"/><path class="xgrid crisp" transform="translate(753.94,0)" d="M0,60v636" style="stroke: rgb(238, 238, 238); stroke-opacity: 1; stroke-width: 1px;"/><path class="xgrid crisp" transform="translate(869.6,0)" d="M0,60v636" style="stroke: rgb(238, 238, 238); stroke-opacity: 1; stroke-width: 1px;"/><path class="xgrid crisp" transform="translate(985.25,0)" d="M0,60v636" style="stroke: rgb(238, 238, 238); stroke-opacity: 1; stroke-width: 1px;"/><path class="xgrid crisp" transform="translate(1100.91,0)" d="M0,60v636" style="stroke: rgb(238, 238, 238); stroke-opacity: 1; stroke-width: 1px;"/></g><g class="y"><path class="ygrid crisp" transform="translate(0,562.06)" d="M60,0h1145" style="stroke: rgb(238, 238, 238); stroke-opacity: 1; stroke-width: 1px;"/><path class="ygrid crisp" transform="translate(0,458.33)" d="M60,0h1145" style="stroke: rgb(238, 238, 238); stroke-opacity: 1; stroke-width: 1px;"/><path class="ygrid crisp" transform="translate(0,354.61)" d="M60,0h1145" style="stroke: rgb(238, 238, 238); stroke-opacity: 1; stroke-width: 1px;"/><path class="ygrid crisp" transform="translate(0,250.88)" d="M60,0h1145" style="stroke: rgb(238, 238, 238); stroke-opacity: 1; stroke-width: 1px;"/><path class="ygrid crisp" transform="translate(0,147.16)" d="M60,0h1145" style="stroke: rgb(238, 238, 238); stroke-opacity: 1; stroke-width: 1px;"/></g></g><g class="zerolinelayer"><path class="xzl zl crisp" transform="translate(60,0)" d="M0,60v636" style="stroke: rgb(68, 68, 68); stroke-opacity: 1; stroke-width: 1px;"/><path class="yzl zl crisp" transform="translate(0,665.78)" d="M60,0h1145" style="stroke: rgb(68, 68, 68); stroke-opacity: 1; stroke-width: 1px;"/></g><path class="xlines-below"/><path class="ylines-below"/><g class="overlines-below"/><g class="xaxislayer-below"/><g class="yaxislayer-below"/><g class="overaxes-below"/><g class="plot" transform="translate(60,60)" clip-path="url('#clip34ccecxyplot')"><g class="scatterlayer mlayer"><g class="trace scatter trace973a12" style="stroke-miterlimit: 2; opacity: 1;"><g class="fills"/><g class="errorbars"/><g class="lines"><path class="js-line" d="M0,31.8L11.57,375.35L23.13,416.63L34.7,449.77L46.26,474.55L57.83,496.41L69.39,509.62L80.96,536.59L92.53,550.84L115.66,569.15L127.22,568.84L138.79,572.68L150.35,574.02L161.92,581.09L173.48,581.12L185.05,583.01L196.62,583.88L208.18,587.19L219.75,589.42L231.31,588.21L242.88,589.66L254.44,588.97L266.01,590.9L277.58,592.53L289.14,591.01L300.71,595.61L312.27,593.34L323.84,592.18L335.4,593.65L346.97,598L358.54,598.53L381.67,598L393.23,597.16L404.8,598.89L416.36,596.86L427.93,598.36L439.49,598.93L451.06,599.76L462.63,599.68L485.76,601.05L497.32,601.23L543.59,601.71L555.15,601.46L578.28,600.23L589.85,600.26L612.98,602.39L624.55,602.5L647.68,602.03L659.24,602.75L693.94,603.3L705.51,603.35L717.07,603.24L728.64,601.9L751.77,601.59L763.33,600.3L774.9,601.99L786.46,601.47L878.99,603.28L890.56,601.74L902.12,599.32L913.69,600.05L925.25,601.2L936.82,601.41L983.08,603.32L994.65,603.85L1017.78,602.33L1029.34,603.17L1052.47,603.29L1064.04,603.62L1098.74,604.2L1110.3,604.13L1145,604.05" style="vector-effect: non-scaling-stroke; fill: none; stroke: rgb(31, 119, 180); stroke-opacity: 1; stroke-width: 2px; opacity: 1;"/></g><g class="points"/><g class="text"/></g><g class="trace scatter trace64c8d7" style="stroke-miterlimit: 2; opacity: 1;"><g class="fills"/><g class="errorbars"/><g class="lines"><path class="js-line" d="M0,381.54L23.13,381.54L34.7,445.6L57.83,445.6L69.39,520.08L92.53,520.08L104.09,532.48L127.22,532.48L138.79,542.96L161.92,542.96L173.48,550.19L231.31,550.47L242.88,547.24L300.71,547.55L312.27,539.1L335.4,539.1L346.97,557.68L370.1,557.68L381.67,547.99L404.8,547.99L416.36,555.88L439.49,555.88L451.06,552.99L474.19,552.99L485.76,557.26L543.59,557.51L555.15,559.48L578.28,559.48L589.85,556.28L612.98,556.28L624.55,558.37L647.68,558.37L659.24,555.93L717.07,555.26L728.64,550.81L786.46,550.79L798.03,554.07L821.16,554.07L832.73,557.56L855.86,557.56L867.42,558.61L890.56,558.61L902.12,543.33L925.25,543.33L936.82,550.87L959.95,550.87L971.52,556.7L994.65,556.7L1006.21,554.09L1029.34,554.09L1040.91,558.15L1064.04,558.15L1075.61,553.88L1098.74,553.88L1110.3,557.53L1133.43,557.53L1145,560.06" style="vector-effect: non-scaling-stroke; fill: none; stroke: rgb(255, 127, 14); stroke-opacity: 1; stroke-width: 2px; opacity: 1;"/></g><g class="points"/><g class="text"/></g></g></g><g class="overplot"/><path class="xlines-above crisp" d="M0,0" style="fill: none;"/><path class="ylines-above crisp" d="M0,0" style="fill: none;"/><g class="overlines-above"/><g class="xaxislayer-above"><g class="xtick"><text text-anchor="middle" x="0" y="709" transform="translate(60,0)" style="font-family: 'Open Sans', verdana, arial, sans-serif; font-size: 12px; fill: rgb(68, 68, 68); fill-opacity: 1; white-space: pre;">0</text></g><g class="xtick"><text text-anchor="middle" x="0" y="709" transform="translate(175.66,0)" style="font-family: 'Open Sans', verdana, arial, sans-serif; font-size: 12px; fill: rgb(68, 68, 68); fill-opacity: 1; white-space: pre;">10</text></g><g class="xtick"><text text-anchor="middle" x="0" y="709" transform="translate(291.31,0)" style="font-family: 'Open Sans', verdana, arial, sans-serif; font-size: 12px; fill: rgb(68, 68, 68); fill-opacity: 1; white-space: pre;">20</text></g><g class="xtick"><text text-anchor="middle" x="0" y="709" transform="translate(406.97,0)" style="font-family: 'Open Sans', verdana, arial, sans-serif; font-size: 12px; fill: rgb(68, 68, 68); fill-opacity: 1; white-space: pre;">30</text></g><g class="xtick"><text text-anchor="middle" x="0" y="709" transform="translate(522.63,0)" style="font-family: 'Open Sans', verdana, arial, sans-serif; font-size: 12px; fill: rgb(68, 68, 68); fill-opacity: 1; white-space: pre;">40</text></g><g class="xtick"><text text-anchor="middle" x="0" y="709" transform="translate(638.28,0)" style="font-family: 'Open Sans', verdana, arial, sans-serif; font-size: 12px; fill: rgb(68, 68, 68); fill-opacity: 1; white-space: pre;">50</text></g><g class="xtick"><text text-anchor="middle" x="0" y="709" transform="translate(753.94,0)" style="font-family: 'Open Sans', verdana, arial, sans-serif; font-size: 12px; fill: rgb(68, 68, 68); fill-opacity: 1; white-space: pre;">60</text></g><g class="xtick"><text text-anchor="middle" x="0" y="709" transform="translate(869.6,0)" style="font-family: 'Open Sans', verdana, arial, sans-serif; font-size: 12px; fill: rgb(68, 68, 68); fill-opacity: 1; white-space: pre;">70</text></g><g class="xtick"><text text-anchor="middle" x="0" y="709" transform="translate(985.25,0)" style="font-family: 'Open Sans', verdana, arial, sans-serif; font-size: 12px; fill: rgb(68, 68, 68); fill-opacity: 1; white-space: pre;">80</text></g><g class="xtick"><text text-anchor="middle" x="0" y="709" transform="translate(1100.91,0)" style="font-family: 'Open Sans', verdana, arial, sans-serif; font-size: 12px; fill: rgb(68, 68, 68); fill-opacity: 1; white-space: pre;">90</text></g></g><g class="yaxislayer-above"><g class="ytick"><text text-anchor="end" x="59" y="4.199999999999999" transform="translate(0,665.78)" style="font-family: 'Open Sans', verdana, arial, sans-serif; font-size: 12px; fill: rgb(68, 68, 68); fill-opacity: 1; white-space: pre;">0</text></g><g class="ytick"><text text-anchor="end" x="59" y="4.199999999999999" transform="translate(0,562.06)" style="font-family: 'Open Sans', verdana, arial, sans-serif; font-size: 12px; fill: rgb(68, 68, 68); fill-opacity: 1; white-space: pre;">2</text></g><g class="ytick"><text text-anchor="end" x="59" y="4.199999999999999" transform="translate(0,458.33)" style="font-family: 'Open Sans', verdana, arial, sans-serif; font-size: 12px; fill: rgb(68, 68, 68); fill-opacity: 1; white-space: pre;">4</text></g><g class="ytick"><text text-anchor="end" x="59" y="4.199999999999999" transform="translate(0,354.61)" style="font-family: 'Open Sans', verdana, arial, sans-serif; font-size: 12px; fill: rgb(68, 68, 68); fill-opacity: 1; white-space: pre;">6</text></g><g class="ytick"><text text-anchor="end" x="59" y="4.199999999999999" transform="translate(0,250.88)" style="font-family: 'Open Sans', verdana, arial, sans-serif; font-size: 12px; fill: rgb(68, 68, 68); fill-opacity: 1; white-space: pre;">8</text></g><g class="ytick"><text text-anchor="end" x="59" y="4.199999999999999" transform="translate(0,147.16)" style="font-family: 'Open Sans', verdana, arial, sans-serif; font-size: 12px; fill: rgb(68, 68, 68); fill-opacity: 1; white-space: pre;">10</text></g></g><g class="overaxes-above"/></g></g><g class="polarlayer"/><g class="ternarylayer"/><g class="geolayer"/><g class="funnelarealayer"/><g class="pielayer"/><g class="treemaplayer"/><g class="sunburstlayer"/><g class="glimages"/><defs id="topdefs-34ccec"><g class="clips"/></defs><g class="layer-above"><g class="imagelayer"/><g class="shapelayer"/></g><g class="infolayer"><g class="g-gtitle"/><g class="g-xtitle"/><g class="g-ytitle"/></g></svg>